<svg id="Layer_1" data-name="Layer 1" xmlns="http://www.w3.org/2000/svg" viewBox="0 0 1614.5 232"><defs><style>.cls-1{fill:#fff;}</style></defs><title>logo</title><polygon class="cls-1" points="393 49.33 361.33 49.33 361.33 78.67 332.67 78.67 332.67 108.67 361.33 108.67 361.33 231 393 231 393 108.67 421.67 108.67 421.67 78.67 393 78.67 393 49.33"/><polygon class="cls-1" points="120 204 91.67 204 91.67 133.33 60 133.33 60 204 31.67 204 31.67 49.33 0 49.33 0 204 0 231 31.67 231 60 231 91.67 231 120 231 151.67 231 151.67 204 151.67 78.67 120 78.67 120 204"/><path class="cls-1" d="M301.67,78.67h-89L193.33,231H225l5.37-42.33H284L289.33,231H321L301.67,78.67h0Zm-67.49,80,6.34-50h33.28l6.34,50h-46Z" transform="translate(0 0)"/><polygon class="cls-1" points="1132.34 49.33 1100.67 49.33 1100.67 78.67 1072 78.67 1072 108.67 1100.67 108.67 1100.67 231 1132.34 231 1132.34 108.67 1161 108.67 1161 78.67 1132.34 78.67 1132.34 49.33"/><polygon class="cls-1" points="639.67 78.67 639.67 0 608 0 608 231 639.67 231 639.67 108.67 694 108.67 694 231 725.67 231 725.67 108.67 725.67 78.67 694 78.67 639.67 78.67"/><polygon class="cls-1" points="479.33 78.67 462.67 78.67 443.33 231 460.33 231 475 231 568.33 231 568.33 201 478.81 201 490.52 108.67 568.33 108.67 568.33 78.67 494.33 78.67 479.33 78.67"/><path class="cls-1" d="M851.83,78.67H765.17V231H883.5V78.67H851.83ZM796.84,201V108.67h55V201h-55Z" transform="translate(0 0)"/><polygon class="cls-1" points="1009.83 201 954.84 201 954.84 108.67 923.17 108.67 923.17 231 939 231 954.84 231 1009.83 231 1028 231 1041.5 231 1041.5 78.67 1009.83 78.67 1009.83 201"/><polygon class="cls-1" points="1392.5 124.5 1392.5 101 1341 101 1341 63 1377.5 63 1377.5 39.5 1278 39.5 1278 63 1314.5 63 1314.5 101 1263 101 1263 124.5 1313.02 124.5 1260.5 232 1287 232 1327.75 148.6 1368.5 232 1395 232 1342.48 124.5 1392.5 124.5"/><path class="cls-1" d="M1614.5,182.5h-81v-12h68v-89h-161v89h69v12H1426V204h83.5v28h24V204h81V182.5Zm-37-79.5v11.5h-113V103h113Zm-113,33h113v13h-113V136Z" transform="translate(0 0)"/><rect class="cls-1" x="1214.5" y="90.5" width="35" height="23.5"/><polygon class="cls-1" points="1471.5 75 1495.5 75 1495.5 61.5 1545.5 61.5 1545.5 75 1569.5 75 1569.5 61.5 1614 61.5 1614 40 1569.5 40 1569.5 27 1545.5 27 1545.5 40 1495.5 40 1495.5 27 1471.5 27 1471.5 40 1426.5 40 1426.5 61.5 1471.5 61.5 1471.5 75"/><polygon class="cls-1" points="1203 232 1229.5 232 1248 130.5 1221.5 130.5 1203 232"/><polygon class="cls-1" points="1205 39 1223 74 1249.5 74 1231.5 39 1205 39"/></svg>