<svg id="圖層_1" data-name="圖層 1" xmlns="http://www.w3.org/2000/svg" viewBox="0 0 306.07 292.96"><defs><style>.cls-1{fill:#9a966e;}</style></defs><title>01</title><path class="cls-1" d="M419,446.24c-6.18-1-12.39-1.77-18.53-2.94-38-7.26-62.84-34.3-67.61-72.5-3.8-30.4,1.23-59.51,11.33-88,2.36-6.66,7.48-9.07,13.29-5.06,10.48,7.23,20.66,8.22,31.55,1.56,0.83-.51,1.92-0.6,2.78-1.08,8.16-4.55,16.29-4.73,24.49-.09,3.42,1.94,6.72,1.55,10.29-.23,5.78-2.89,11.88-5.12,17.72-7.91,4.32-2.07,7.93-1.38,11.49,1.6,4.47,3.73,8.95,7.48,13.71,10.82a6.55,6.55,0,0,0,5.53.5c6.3-3,12.37-6.43,18.55-9.66,6.89-3.6,10.88-2.18,13.71,4.92,9.8,24.64,15.36,50.19,14.58,76.73-0.75,25.39-7,49-26.23,67.36-13.35,12.78-29.64,19.17-47.56,22-4.35.7-8.72,1.32-13.08,2H419ZM357.66,295a17,17,0,0,0-1.43,2.34c-7.16,23.61-11,47.6-7.17,72.26,3.76,24.48,15.77,43.14,39.24,53.08,19,8,38.82,8.92,58.71,5.32,30-5.43,49.58-22.6,56.28-53.12,4.14-18.89,2.89-37.71-.93-56.41-1.88-9.19-4.6-18.2-7.08-27.83-7.14,3.75-13.32,6.92-19.42,10.24-4,2.2-7.57,1.62-11-1.22-4.63-3.8-9.53-7.3-14-11.3-2.3-2.07-4.08-2-6.62-.76a169.47,169.47,0,0,1-17.33,7.54c-2.89,1-6.93,1.62-9.41.36-9.42-4.79-18.3-4.56-27.28.67-0.56.33-1.28,0.37-1.87,0.66C377.84,302,367.43,304.88,357.66,295Z" transform="translate(-268 -153.28)"/><path class="cls-1" d="M444,153.28c4.42,1.17,9,2,13.24,3.57,20.3,7.64,32.45,23.54,41.72,42.11,6.93,13.88,10.91,28.76,13.91,43.91a8.25,8.25,0,0,1-6.1,10q-14.77,4.35-29.67,8.26a8.75,8.75,0,0,1-9.73-3.38c-3.67-4.73-7.77-9.14-11.21-14-2.3-3.26-5-3.77-8.53-3.28-5.1.71-10.24,1.12-15.34,1.78-5.72.75-10.54-.46-13.82-5.65-2.92-4.63-6.42-5.92-12-3.8-7.71,2.91-15.94,4.43-23.86,6.84-4.38,1.33-8,.87-11.54-2.19-5-4.37-10.27-8.46-15.35-12.76-3.6-3-4.15-7-1.71-10.74,15.71-24,34.54-44.76,62-55.73,5.76-2.3,12-3.34,18.06-5h10Zm-72.25,63.05c4.33,5.5,8.74,8.45,15.9,5.21,5.21-2.36,11.36-2.62,16.63-4.88,10.17-4.36,18.15-3,24.31,6.73a6.28,6.28,0,0,0,4.84,2.18c7.29-.37,14.55-1.51,21.84-1.64,2.63,0,5.59,1.54,7.86,3.15,2.09,1.48,3.43,4,5.15,6,3.11,3.65,5.69,9.27,9.54,10.35,4.1,1.16,9.38-2.15,14.21-3.2,2.82-.61,3.49-2,2.84-4.57-4.34-17-10.3-33.28-21.42-47.17-14.09-17.61-32-23.16-51.08-15.61C400.49,181.6,385.14,197.9,371.73,216.33Z" transform="translate(-268 -153.28)"/><path class="cls-1" d="M268,245.27c2.36-4.95,6.29-6.45,11.66-6.28,10.14,0.33,20.31,0,30.46.12,6,0,9.42,3,9.45,7.93,0,4.69-3.77,8.15-9.4,8.2-10.82.1-21.64,0-32.46,0.06-5.09,0-7.85-2.79-9.71-7v-3Z" transform="translate(-268 -153.28)"/><path class="cls-1" d="M328.25,272.51c-1.7,2.74-2.54,5.27-4.28,6.68-10.32,8.35-20.8,16.51-31.34,24.59-4.52,3.46-8.94,3.09-11.95-.56s-2.42-8.58,2.07-12.16c10.38-8.28,20.76-16.58,31.51-24.35,2.07-1.5,6.17-1.53,8.74-.6C325.11,266.86,326.34,270,328.25,272.51Z" transform="translate(-268 -153.28)"/><path class="cls-1" d="M289.07,183.72c2.8,1.62,5.21,2.48,6.91,4.09,9.28,8.83,18.43,17.81,27.53,26.83,3.84,3.81,4.15,8.65,1.06,12.06-3.28,3.62-8,3.62-12.28-.47-9.4-8.95-18.86-17.85-27.74-27.3-1.95-2.07-2.62-6.52-2-9.46C283,187.3,286.59,185.78,289.07,183.72Z" transform="translate(-268 -153.28)"/><path class="cls-1" d="M536.89,264.38c3,1.32,4.94,1.94,6.62,2.91q12.69,7.36,25.28,14.89c5.14,3.09,6.58,7.41,4.07,11.59s-7.18,5.25-12.11,2.39c-8.89-5.15-17.69-10.47-26.53-15.71-3.58-2.12-5.49-5.53-3.85-9.19C531.6,268.49,534.72,266.57,536.89,264.38Z" transform="translate(-268 -153.28)"/><path class="cls-1" d="M539.1,250.45c-4.09.12-6.59-2.09-7.77-5.72a7,7,0,0,1,3.67-8.88c8.43-4.17,17-8,25.73-11.62,3.74-1.54,7.29-.18,9.3,3.54s2,7.79-1.68,9.71c-9,4.72-18.48,8.66-27.78,12.88A4.26,4.26,0,0,1,539.1,250.45Z" transform="translate(-268 -153.28)"/><path class="cls-1" d="M420.35,267.43a8.92,8.92,0,0,1-9.37-8.74,9.53,9.53,0,0,1,9.08-9.36,9.34,9.34,0,0,1,9,9.34A8.62,8.62,0,0,1,420.35,267.43Z" transform="translate(-268 -153.28)"/><path class="cls-1" d="M393.53,267.43c-5.24-.08-8.79-3.86-8.66-9.23a9.23,9.23,0,0,1,8.9-8.84c4.59,0,9.27,4.73,9.19,9.32A9.06,9.06,0,0,1,393.53,267.43Z" transform="translate(-268 -153.28)"/></svg>