<svg id="圖層_1" data-name="圖層 1" xmlns="http://www.w3.org/2000/svg" viewBox="0 0 521.93 683.91"><defs><style>.cls-1{fill:#9a966e;}</style></defs><title>03</title><path class="cls-1" d="M-101,419.22q0-212,0-423.95a2.67,2.67,0,0,0,.82-1.05c0.09-8.21,4-15,7.76-21.93C-86-39.68-75-45.47-63.18-50.26c2.91-1.18,6.11-1.66,9.18-2.46H262a2.92,2.92,0,0,0,1,1c10.45,2.24,21,4,31.33,6.78A123.54,123.54,0,0,1,315-36.72c9.47,4.56,19,9.18,27.85,14.81,7.52,4.78,14.08,11.07,21.14,16.59,11.94,9.33,21.2,21.24,29.55,33.5C401.07,39.2,406.63,51.69,412,64c4.78,11,8.21,22.45,8.21,34.79q-0.14,245.09,0,490.18a49.58,49.58,0,0,0,.77,6.23v1c-3.77,5.93-6.77,12.58-11.49,17.62a53.52,53.52,0,0,1-29.89,16.3,33.34,33.34,0,0,0-3.61,1.08H109c-6.85-7.1-13.6-14.3-20.57-21.28q-70.48-70.59-141-141.13C-68.89,452.43-84.87,435.75-101,419.22ZM238.14,494.1c1.49-1.86,3.4-4.31,5.39-6.69C259,469,266.27,447.35,267.34,423.69c0.77-17,.81-34,0.26-51a171.88,171.88,0,0,0-3.89-31.42,88.56,88.56,0,0,0-18.58-37.63c-8-9.62-16.36-18.82-27.31-24.76-9.86-5.35-20.19-10.66-31-13.28-22-5.34-44-4.34-65.1,5.13-16.32,7.31-25.49,11.6-40,29.28A157.14,157.14,0,0,0,68.47,319C60.28,332.66,56.81,347.83,56,363.57c-0.42,8.31-.37,16.67,0,25,0.77,17.37-1.73,34.79,1.82,52.15,3.25,15.89,8.84,30.46,18.75,43.42,13,17,29.19,29.6,49.4,36.54A133.43,133.43,0,0,0,150,526a83.55,83.55,0,0,0,35.31-2.61,5.15,5.15,0,0,1,4.14.72c3,2.56,5.58,5.49,8.32,8.29,6.06,6.18,12.09,12.4,18.19,18.54,7.36,7.41,14.82,14.71,22.15,22.14,3.65,3.7,7.2,6.88,13.14,6.2a198.63,198.63,0,0,1,20.39-1c14.46-.16,28.92-0.07,43.39-0.19,1.54,0,3.07-.71,5.3-1.27ZM187.92,0.35V237.22h54a18.18,18.18,0,0,1-.94-3.76q-0.08-22,0-44c0-3.28,1.78-4.45,5.1-4.41,11,0.16,22,.06,33,0.06h39.75V191q0,59.74-.07,119.48c0,3.72.81,6.4,3.63,9.13,9.88,9.56,19.41,19.49,29,29.33,6.45,6.61,12.8,13.32,19.19,20l1.65-.65a27.23,27.23,0,0,0,.69-4.33c0-72,.12-144-0.21-216a314.92,314.92,0,0,0-3-43.51,97.79,97.79,0,0,0-16.49-42.53,232.4,232.4,0,0,0-16.89-22c-4.61-5.13-10.46-9.15-15.77-13.65-13.21-11.17-29-17.92-45.16-22.44C263.55,0.54,250.62.63,238.13,0.18c-15.31-.56-30.65-0.11-46-0.08C190.71,0.1,189.28.27,187.92,0.35ZM3,420.7l1.46-.37c0-7.6,0-15.19,0-22.79-0.13-41.14,0-82.29-.67-123.43-0.12-7,3.21-11.18,7.23-14.64C24,248.34,37.62,238,50.93,227.25Q86,198.92,121.06,170.49c7.5-6.1,8.36-18.88,2.15-26.58-4-5-7.81-10.05-12.05-14.85-5.86-6.63-10.82-14.05-16.43-20.92C78.43,88.18,62,68.35,45.66,48.42,36,36.61,26.29,24.82,16.87,12.8,6.57-.35-10.9-3.15-23.65,1.46-39.83,7.32-49.42,21.68-49.43,39.29q-0.08,162.7.28,325.39a8.73,8.73,0,0,0,2.28,5.47c5.7,5.94,11.76,11.53,17.54,17.4C-18.48,398.55-7.75,409.65,3,420.7Z" transform="translate(100.99 52.72)"/><path class="cls-1" d="M215.79,392.55c-0.94,13.2-1.51,26.43-3,39.57-1,8.84-5.89,16.28-11.76,22.69a48.84,48.84,0,0,1-13.29,10.68c-12,6.14-24.42,9.85-38.55,5.87-16-4.5-27-14.37-34.44-28.34-3-5.61-4.38-12.61-4.56-19-0.57-19.63-.12-39.28-0.25-58.93-0.06-9.42,3.49-17.85,8.49-25.15A60.91,60.91,0,0,1,134.85,324c12.59-8.34,26.92-11.46,41.47-6.42,12.12,4.2,23.17,11.07,29.88,22.62,5.29,9.1,8.77,19,8.73,29.8,0,7.49,0,15,0,22.47Z" transform="translate(100.99 52.72)"/><path class="cls-1" d="M318.2,130.32H241.58V54C272.48,50.48,319.18,81.58,318.2,130.32Z" transform="translate(100.99 52.72)"/><path class="cls-1" d="M4.7,196.22V84.33L6,83.56l54.41,67.67Z" transform="translate(100.99 52.72)"/></svg>