<svg id="圖層_1" data-name="圖層 1" xmlns="http://www.w3.org/2000/svg" viewBox="0 0 455.78 456.62"><defs><style>.cls-1{fill:#9a966e;}</style></defs><title>04</title><path class="cls-1" d="M340,576.68V420.26l-92,92C273.82,543.06,308.85,566.41,340,576.68Z" transform="translate(-161 -139.91)"/><path class="cls-1" d="M522.73,532.33l0.88,0,0.7-.05,0.78-.06,0.88-.11,0.59-.07,1-.16,0.51-.09,1-.21,0.49-.11,0.93-.25,0.42-.11L585,585.29l21.21-21.21-54.6-54.6,0.06-.24c0-.17.08-0.34,0.12-0.51s0.14-.63.21-0.94,0.06-.35.09-0.53,0.11-.62.16-0.93,0.05-.41.08-0.62,0.07-.57.1-0.85,0-.55.06-0.83,0-.44,0-0.66q0-.79,0-1.59a89.56,89.56,0,0,0,10.71-58.88l-30.42,30.42a30.55,30.55,0,0,0-11.07-2.11l-24.3-24.29A116.12,116.12,0,0,0,501,419V195H371V320.41l-31-31V195H245.57l-55-55H161.09l-0.09-.09v29.7l49,49V419c0,23.56,7.36,46.23,19.28,66.79L340,375.07V348.65l31,31V576.51c37.7-12.91,82.77-45.88,108.72-88.11L491.29,500a30.57,30.57,0,0,0,2.06,12.86l-31.2,31.2A89.89,89.89,0,0,0,514,537h8v-4.22Z" transform="translate(-161 -139.91)"/><path class="cls-1" d="M610.49,559.83l-30.41,30.41A21.5,21.5,0,0,0,610.49,559.83Z" transform="translate(-161 -139.91)"/></svg>