<svg id="圖層_1" data-name="圖層 1" xmlns="http://www.w3.org/2000/svg" viewBox="0 0 154.98 211.97"><defs><style>.cls-1{fill:#9a966e;}</style></defs><title>05</title><path class="cls-1" d="M617.78,269.89v-23c1-1.78,2.55-3.45,3-5.37,1.69-7.39,2.54-15,4.64-22.26,2.68-9.27,5.82-14.85,15.71-8.22A14.66,14.66,0,0,0,651,213c4.73-.86,8,0.24,10,4.26s7,7.65,4.34,13c-3.18,6.48-6.48,13-10.74,18.82-7.79,10.54-8.1,10.31,2.48,18.2,3.09,2.31,5.55,1.44,6.87-2.11,2.24-6,4-12.41,7.19-17.91,12.3-21,26.45-28,49.56-23.67,5.15,1,7.68-.58,10.64-3.8,3.46-3.77,6.88-7.74,11-10.7,3.39-2.45,3.84-4.88,2.17-8-4.8-9-3.57-17.46,2.11-25.55,2.15-3.06,4.72-3,6.58.32,1,1.86,1.48,4,2.36,6,4.47,9.9,8.93,19.81,13.59,29.62,0.67,1.42,2.41,2.34,3.65,3.49v6c-1.19.77-2.73,1.29-3.5,2.36-7.72,10.78-15.6,21.46-22.84,32.56-5.83,8.94-15,13.59-23.52,18.62-12.4,7.35-18.24,18.36-20.12,31.41-2.25,15.54-2.75,31.34-4,47h-68c-0.42-1.38-.89-2.74-1.26-4.13-1.43-5.38-3.56-10.69-4.11-16.16-1.89-18.92-3.14-37.91-4.86-56.85C620.38,273.72,618.74,271.84,617.78,269.89Z" transform="translate(-617.78 -140.91)"/><path class="cls-1" d="M706.77,140.91a55.56,55.56,0,0,1,4.07,6.61c0.87,1.95,2,4.56,1.38,6.26-2.71,7.26-6,14.31-9.16,21.41-2.42,5.45-2.73,10.63.22,16.19,2.8,5.28,5.17,11.08,1.32,16.91a7.66,7.66,0,0,1-4.94,3.29c-1.34.1-3.27-1.81-4.22-3.28-3.3-5.15-5.81-10.87-9.5-15.7-5.4-7.06-1.36-13.69.09-20.36,1.58-7.26,4-14.33,5.88-21.54,0.91-3.51,2.24-6,6.35-6.57,1.62-.22,3-2.1,4.51-3.23h4Z" transform="translate(-617.78 -140.91)"/><path class="cls-1" d="M617.78,269.89c1,1.94,2.59,3.83,2.77,5.84,1.72,18.94,3,37.93,4.86,56.85,0.55,5.47,2.68,10.78,4.11,16.16,0.37,1.39.83,2.76,1.26,4.13h-13Q617.78,311.39,617.78,269.89Z" transform="translate(-617.78 -140.91)"/><path class="cls-1" d="M656,181.77c2.52-10.06,4.45-20.32,7.89-30.06,1.15-3.26,5.86-6,9.54-7.36,2.25-.85,6.18.66,8.29,2.4,1.1,0.91.27,4.73-.38,7-2.5,8.95-5.62,17.74-7.74,26.77-0.67,2.85.75,6.38,1.79,9.4s3,5.92,4.3,8.95c2.43,5.47,1,10.35-2.55,14.83-2,2.48-4,2.4-5.57-.2-4.51-7.33-9.14-14.6-13.14-22.2-1.38-2.62-1-6.14-1.5-9.24Z" transform="translate(-617.78 -140.91)"/><path class="cls-1" d="M710,188.08c1.51-4.78,2.72-9.45,4.47-13.92,2-5.09,4.46-10,6.69-15,2.31-5.18,6.93-4.33,11.18-4.26s4.51,3.12,4.78,6.28c0.1,1.12.29,2.55,1,3.24,4.28,4.13,1.33,6.92-1.49,10-2.58,2.79-5,5.73-7.33,8.75s-2.7,6.51-1.08,10.31c2.07,4.85.3,11.55-4,14.16-1.54.95-5.66,0.84-6.07,0C715.08,201.26,712.63,194.59,710,188.08Z" transform="translate(-617.78 -140.91)"/><path class="cls-1" d="M646.59,151c5.38,0.84,6.18,2.61,5.12,7.62-1.47,6.92-2.42,14-3.24,21-0.87,7.46,3.64,13.55,5.7,20.27,0.35,1.14.78,3,.24,3.49a4.18,4.18,0,0,1-3.66.47,46.32,46.32,0,0,1-7.39-4c-7.28-4.68-12.71-23.68-9.14-31.52,2-4.3,3.41-8.9,5.88-12.87C641.37,153.46,644.37,152.48,646.59,151Z" transform="translate(-617.78 -140.91)"/></svg>