<svg id="圖層_1" data-name="圖層 1" xmlns="http://www.w3.org/2000/svg" viewBox="0 0 91.67 86.01"><defs><style>.cls-1{fill:#9a966e;}</style></defs><title>06</title><path class="cls-1" d="M441,287.27a1.6,1.6,0,0,0,1.6-1.6v-3.3a1.6,1.6,0,1,0-3.2,0v3.3A1.6,1.6,0,0,0,441,287.27Z" transform="translate(-414.63 -226.89)"/><path class="cls-1" d="M441,295.57a1.6,1.6,0,0,0,1.6-1.6v-3.3a1.6,1.6,0,1,0-3.2,0V294A1.6,1.6,0,0,0,441,295.57Z" transform="translate(-414.63 -226.89)"/><path class="cls-1" d="M441,303.36a1.6,1.6,0,0,0,1.6-1.6v-3.3a1.6,1.6,0,0,0-3.2,0v3.3A1.6,1.6,0,0,0,441,303.36Z" transform="translate(-414.63 -226.89)"/><path class="cls-1" d="M480.26,287.27a1.6,1.6,0,0,0,1.6-1.6v-3.3a1.6,1.6,0,1,0-3.2,0v3.3A1.6,1.6,0,0,0,480.26,287.27Z" transform="translate(-414.63 -226.89)"/><path class="cls-1" d="M480.26,295.57a1.6,1.6,0,0,0,1.6-1.6v-3.3a1.6,1.6,0,1,0-3.2,0V294A1.6,1.6,0,0,0,480.26,295.57Z" transform="translate(-414.63 -226.89)"/><path class="cls-1" d="M480.26,303.36a1.6,1.6,0,0,0,1.6-1.6v-3.3a1.6,1.6,0,0,0-3.2,0v3.3A1.6,1.6,0,0,0,480.26,303.36Z" transform="translate(-414.63 -226.89)"/><path class="cls-1" d="M423.62,291.89a3.07,3.07,0,0,0-3.1,3.1v2.7a1.6,1.6,0,0,0,1.6,1.6h3a1.6,1.6,0,0,0,1.6-1.6V295a3.05,3.05,0,0,0-.95-2.25A2.89,2.89,0,0,0,423.62,291.89Z" transform="translate(-414.63 -226.89)"/><path class="cls-1" d="M497.78,291.85a3.07,3.07,0,0,0-3.1,3.1v2.7a1.6,1.6,0,0,0,1.6,1.6h3a1.6,1.6,0,0,0,1.6-1.6v-2.7a3.05,3.05,0,0,0-.95-2.25A2.89,2.89,0,0,0,497.78,291.85Z" transform="translate(-414.63 -226.89)"/><path class="cls-1" d="M452.92,276.41a3.07,3.07,0,0,0-3.1,3.1v2.7a1.6,1.6,0,0,0,1.6,1.6h3a1.6,1.6,0,0,0,1.6-1.6v-2.7a3.05,3.05,0,0,0-.95-2.25A2.89,2.89,0,0,0,452.92,276.41Z" transform="translate(-414.63 -226.89)"/><path class="cls-1" d="M460.18,276.41a3.07,3.07,0,0,0-3.1,3.1v2.7a1.6,1.6,0,0,0,1.6,1.6h3a1.6,1.6,0,0,0,1.6-1.6v-2.7a3.05,3.05,0,0,0-.95-2.25A2.89,2.89,0,0,0,460.18,276.41Z" transform="translate(-414.63 -226.89)"/><path class="cls-1" d="M467.35,276.41a3.07,3.07,0,0,0-3.1,3.1v2.7a1.6,1.6,0,0,0,1.6,1.6h3a1.6,1.6,0,0,0,1.6-1.6v-2.7a3.05,3.05,0,0,0-.95-2.25A2.89,2.89,0,0,0,467.35,276.41Z" transform="translate(-414.63 -226.89)"/><path class="cls-1" d="M460.39,254.73a1.75,1.75,0,0,0,1.75-1.75V228.64a1.75,1.75,0,0,0-3.5,0V253A1.75,1.75,0,0,0,460.39,254.73Z" transform="translate(-414.63 -226.89)"/><path class="cls-1" d="M431.26,261.88L447,269.13a1.74,1.74,0,0,0,.73.16,1.75,1.75,0,0,0,.73-3.34l-15.75-7.25A1.75,1.75,0,0,0,431.26,261.88Z" transform="translate(-414.63 -226.89)"/><path class="cls-1" d="M488,260.41l-16.65,5.94a1.75,1.75,0,0,0,.59,3.4,1.73,1.73,0,0,0,.59-0.1l16.65-5.94a1.75,1.75,0,0,0,.16-3.23A1.73,1.73,0,0,0,488,260.41Z" transform="translate(-414.63 -226.89)"/><path class="cls-1" d="M475.93,258.12a1.75,1.75,0,0,0,1.27-.54l11.61-12.17a1.75,1.75,0,0,0-.06-2.47,1.79,1.79,0,0,0-1.25-.48,1.73,1.73,0,0,0-1.22.54l-11.61,12.17A1.75,1.75,0,0,0,475.93,258.12Z" transform="translate(-414.63 -226.89)"/><path class="cls-1" d="M469.58,260a1.75,1.75,0,0,0-.07,2.47,1.75,1.75,0,0,0,2.47.07l2.25-2.14a1.75,1.75,0,0,0-1.16-3,1.68,1.68,0,0,0-1.25.48Z" transform="translate(-414.63 -226.89)"/><path class="cls-1" d="M437.53,250.88l12,11.29a1.75,1.75,0,0,0,2.4-2.55l-12-11.29A1.75,1.75,0,0,0,437.53,250.88Z" transform="translate(-414.63 -226.89)"/><path class="cls-1" d="M434.44,248a1.75,1.75,0,0,0,2.4-2.55l-2.26-2.12a1.75,1.75,0,0,0-2.4,2.55Z" transform="translate(-414.63 -226.89)"/><path class="cls-1" d="M465.35,257.92h0a1.75,1.75,0,0,0,2.23-1.07L473,241.46a1.75,1.75,0,0,0-3.3-1.16l-5.39,15.38A1.75,1.75,0,0,0,465.35,257.92Z" transform="translate(-414.63 -226.89)"/><path class="cls-1" d="M452.88,256.67a1.76,1.76,0,0,0,1.58,1,1.75,1.75,0,0,0,1.57-2.51l-7.1-14.67a1.75,1.75,0,0,0-3.15,1.53Z" transform="translate(-414.63 -226.89)"/><path class="cls-1" d="M504.55,283.23H487V277a1.75,1.75,0,0,0-1.75-1.75H482v-3.1a1.75,1.75,0,0,0-1.75-1.75H461.09v-2.25l1.42-.82c0.81-.46,1.61-0.93,2.32-1.36a1.75,1.75,0,0,0,.1-2.93l-4.59-3.22a1.75,1.75,0,0,0-2.75,1.43v9.15H439.37a1.75,1.75,0,0,0-1.75,1.75v3.1h-2.2a1.75,1.75,0,0,0-1.75,1.75v6.24H416.38a1.75,1.75,0,0,0-1.75,1.75v26.17a1.75,1.75,0,0,0,1.75,1.75h88.17a1.75,1.75,0,0,0,1.75-1.75V285A1.75,1.75,0,0,0,504.55,283.23Zm-17.28,15.89a1.58,1.58,0,0,0,.69.16h3a1.6,1.6,0,0,0,1.6-1.6V295a3.05,3.05,0,0,0-.95-2.25,2.89,2.89,0,0,0-2.15-.85,3.09,3.09,0,0,0-2.19.89v-6H502.8V309.4H487.27V299.12ZM476,286.31h-0.15v-7.57h7.59V309.4h-5.69V288.06A1.75,1.75,0,0,0,476,286.31Zm-1.75,3.5v2.42h-28.1v-2.42h28.1ZM472.37,277v9.32H448.26V277a1.75,1.75,0,0,0-1.75-1.75h-5.39V273.9h37.4v1.35h-4.4A1.75,1.75,0,0,0,472.37,277Zm-27.61,1.75v7.57h-0.34a1.75,1.75,0,0,0-1.75,1.75V309.4h-5.5V278.75h7.59Zm18,20.68a2.89,2.89,0,0,0-2.15-.85,3.07,3.07,0,0,0-3.1,3.1v7.38H446.17V295.73h28.1v13.33H463.72v-7.38A3.05,3.05,0,0,0,462.77,299.43Zm-30.43-4.58h-0.49v0l0.5,0h0Zm-3.5.1v2.7a1.6,1.6,0,0,0,1.6,1.6h3l0.23,0V309.4H418.13V286.73h15.53v5.6a3,3,0,0,0-1.73-.49A3.07,3.07,0,0,0,428.84,294.95Z" transform="translate(-414.63 -226.89)"/></svg>