<svg id="圖層_1" data-name="圖層 1" xmlns="http://www.w3.org/2000/svg" viewBox="0 0 155.78 150.53"><defs><style>.cls-1{fill:#ffba31;}.cls-2{fill:#34ca9d;}.cls-3{stroke:#30241c;stroke-miterlimit:10;stroke-width:2px;}.cls-4{fill:#fff;}.cls-5{fill:#34303d;}</style></defs><title>01</title><rect class="cls-1" x="37.97" y="57.33" width="71.47" height="7.17"/><rect class="cls-1" x="9.07" y="86.01" width="129.05" height="64.52"/><rect class="cls-2" x="9.07" y="86.01" width="129.05" height="14.55"/><path class="cls-3" d="M490.07,309.78H344.9v-23.3H490.07v23.3ZM346.69,308H488.28V288.27H346.69V308Z" transform="translate(-343.9 -222.87)"/><rect class="cls-3" x="15.19" y="86.01" width="1.79" height="21.36"/><rect class="cls-3" x="22.51" y="93.63" width="1.79" height="21.36"/><rect class="cls-3" x="130.05" y="107.59" width="1.79" height="21.36"/><rect class="cls-3" x="37.07" y="121.91" width="1.79" height="21.36"/><rect class="cls-3" x="108.54" y="114.98" width="1.79" height="21.36"/><rect class="cls-3" x="122.88" y="92.69" width="1.79" height="21.36"/><polygon class="cls-3" points="12.65 64.5 10.86 64.5 10.86 55.15 47.02 18.99 48.29 20.26 12.65 55.9 12.65 64.5"/><circle class="cls-1" cx="57.1" cy="10.73" r="5.37"/><polygon class="cls-3" points="136.26 64.5 134.47 64.5 134.47 55.9 111.58 33.01 112.85 31.74 136.26 55.15 136.26 64.5"/><circle class="cls-2" cx="107.79" cy="27.07" r="7.11"/><rect class="cls-4" x="44.97" y="107.37" width="57.3" height="14.55"/><path class="cls-3" d="M451,273.77h-0.26a0.9,0.9,0,0,1,.07-1.79H451A0.9,0.9,0,0,1,451,273.77Zm8.78-1.46a0.9,0.9,0,0,1-.31-1.74l0.2-.08a0.9,0.9,0,1,1,.65,1.67l-0.22.08A0.89,0.89,0,0,1,459.78,272.32Zm-17.67-.62a0.89,0.89,0,0,1-.37-0.08l-0.21-.1a0.9,0.9,0,0,1,.76-1.62l0.2,0.09A0.9,0.9,0,0,1,442.12,271.7Zm25.39-4.24a0.9,0.9,0,0,1-.62-1.55l0.15-.15a0.9,0.9,0,0,1,1.25,1.29l-0.17.16A0.89,0.89,0,0,1,467.51,267.46Zm-32.76-1.15a0.89,0.89,0,0,1-.66-0.29l-0.16-.17a0.9,0.9,0,0,1,1.34-1.19l0.14,0.16A0.9,0.9,0,0,1,434.75,266.31Zm38-6.33a0.9,0.9,0,0,1-.82-1.26l0.08-.2a0.9,0.9,0,1,1,1.65.7l-0.09.22A0.9,0.9,0,0,1,472.74,260Zm-42.68-1.49a0.9,0.9,0,0,1-.84-0.6l-0.08-.22a0.9,0.9,0,0,1,1.7-.58l0.07,0.2A0.9,0.9,0,0,1,430.05,258.49Zm44.58-7.43h0a0.9,0.9,0,0,1-.89-0.9v-0.22a0.9,0.9,0,1,1,1.79,0v0.23A0.9,0.9,0,0,1,474.63,251.06Zm-45.85-1.6h-0.05a0.9,0.9,0,0,1-.84-0.95l0-.23a0.9,0.9,0,1,1,1.79.13v0.21A0.9,0.9,0,0,1,428.79,249.46Zm45-4.74a0.9,0.9,0,0,1-.86-0.66l-0.06-.21a0.9,0.9,0,0,1,1.72-.49l0.06,0.22A0.9,0.9,0,0,1,473.81,244.71Zm-42.68-4.07a0.9,0.9,0,0,1-.8-1.3l0.1-.21a0.9,0.9,0,1,1,1.6.81l-0.1.19A0.9,0.9,0,0,1,431.13,240.64Zm38.54-4.06a0.89,0.89,0,0,1-.7-0.34l-0.13-.17a0.9,0.9,0,1,1,1.39-1.13l0.15,0.18A0.9,0.9,0,0,1,469.67,236.58Zm-32.94-3.14a0.9,0.9,0,0,1-.59-1.58l0.18-.15a0.9,0.9,0,0,1,1.16,1.37l-0.16.14A0.89,0.89,0,0,1,436.73,233.44Zm26-2.74a0.89,0.89,0,0,1-.43-0.11l-0.19-.1a0.9,0.9,0,1,1,.85-1.58l0.2,0.11A0.9,0.9,0,0,1,462.7,230.7Zm-18-1.72a0.9,0.9,0,0,1-.27-1.75l0.22-.07a0.9,0.9,0,0,1,.53,1.71l-0.21.06A0.9,0.9,0,0,1,444.69,229Zm9.29-1h-0.09l-0.21,0a0.9,0.9,0,1,1,.16-1.79l0.23,0A0.9,0.9,0,0,1,454,228Z" transform="translate(-343.9 -222.87)"/><rect class="cls-5" x="145.05" width="2.25" height="7.51"/><rect class="cls-5" x="145.05" y="11.68" width="2.25" height="7.51"/><rect class="cls-5" x="148.26" y="8.47" width="7.51" height="2.25"/><rect class="cls-5" x="136.58" y="8.47" width="7.51" height="2.25"/></svg>