<svg id="圖層_1" data-name="圖層 1" xmlns="http://www.w3.org/2000/svg" viewBox="0 0 137.61 142.22"><defs><style>.cls-1{fill:#34ca9d;}.cls-2{fill:#34303d;}.cls-3{fill:#ffba31;}</style></defs><title>02</title><rect class="cls-1" x="34.25" y="22.73" width="92.15" height="13.82"/><path class="cls-2" d="M479.27,272.22H387.13a2,2,0,0,1,0-4h92.15A2,2,0,1,1,479.27,272.22Z" transform="translate(-352.87 -226.75)"/><path class="cls-2" d="M414.77,318.29H387.13a2,2,0,0,1,0-4h27.64A2,2,0,0,1,414.77,318.29Z" transform="translate(-352.87 -226.75)"/><path class="cls-2" d="M414.77,309.08H387.13a2,2,0,0,1,0-4h27.64A2,2,0,1,1,414.77,309.08Z" transform="translate(-352.87 -226.75)"/><path class="cls-2" d="M414.77,299.86H387.13a2,2,0,0,1,0-4h27.64A2,2,0,0,1,414.77,299.86Z" transform="translate(-352.87 -226.75)"/><path class="cls-2" d="M414.77,290.65H387.13a2,2,0,0,1,0-4h27.64A2,2,0,1,1,414.77,290.65Z" transform="translate(-352.87 -226.75)"/><path class="cls-2" d="M414.77,281.43H387.13a2,2,0,0,1,0-4h27.64A2,2,0,0,1,414.77,281.43Z" transform="translate(-352.87 -226.75)"/><path class="cls-2" d="M414.77,327.51H387.13a2,2,0,0,1,0-4h27.64A2,2,0,1,1,414.77,327.51Z" transform="translate(-352.87 -226.75)"/><path class="cls-2" d="M447,318.29H419.38a2,2,0,0,1,0-4H447A2,2,0,0,1,447,318.29Z" transform="translate(-352.87 -226.75)"/><path class="cls-2" d="M447,327.51H419.38a2,2,0,0,1,0-4H447A2,2,0,0,1,447,327.51Z" transform="translate(-352.87 -226.75)"/><path class="cls-2" d="M447,336.72H419.38a2,2,0,0,1,0-4H447A2,2,0,0,1,447,336.72Z" transform="translate(-352.87 -226.75)"/><path class="cls-2" d="M447,345.94H419.38a2,2,0,0,1,0-4H447A2,2,0,0,1,447,345.94Z" transform="translate(-352.87 -226.75)"/><path class="cls-2" d="M447,355.15H419.38a2,2,0,0,1,0-4H447A2,2,0,0,1,447,355.15Z" transform="translate(-352.87 -226.75)"/><path class="cls-2" d="M479.27,318.29H451.63a2,2,0,0,1,0-4h27.64A2,2,0,0,1,479.27,318.29Z" transform="translate(-352.87 -226.75)"/><path class="cls-2" d="M479.27,327.51H451.63a2,2,0,0,1,0-4h27.64A2,2,0,1,1,479.27,327.51Z" transform="translate(-352.87 -226.75)"/><path class="cls-2" d="M479.27,336.72H451.63a2,2,0,0,1,0-4h27.64A2,2,0,0,1,479.27,336.72Z" transform="translate(-352.87 -226.75)"/><path class="cls-2" d="M479.27,345.94H451.63a2,2,0,0,1,0-4h27.64A2,2,0,1,1,479.27,345.94Z" transform="translate(-352.87 -226.75)"/><path class="cls-2" d="M465.45,355.15H451.63a2,2,0,0,1,0-4h13.82A2,2,0,0,1,465.45,355.15Z" transform="translate(-352.87 -226.75)"/><rect class="cls-3" x="66.5" y="50.38" width="59.9" height="32.25"/><path class="cls-2" d="M442.42,295.26h-4.61a2,2,0,0,1,0-4h4.61A2,2,0,0,1,442.42,295.26Z" transform="translate(-352.87 -226.75)"/><path class="cls-2" d="M451.63,295.26H447a2,2,0,0,1,0-4h4.61A2,2,0,0,1,451.63,295.26Z" transform="translate(-352.87 -226.75)"/><path class="cls-2" d="M460.84,295.26h-4.61a2,2,0,0,1,0-4h4.61A2,2,0,0,1,460.84,295.26Z" transform="translate(-352.87 -226.75)"/><path class="cls-2" d="M412.47,355.15h-23a2,2,0,0,1-2-2V334.72a2,2,0,0,1,2-2h23a2,2,0,0,1,2,2v18.43A2,2,0,0,1,412.47,355.15Zm-21-4h19V336.72h-19v14.43Z" transform="translate(-352.87 -226.75)"/><path class="cls-2" d="M403.25,345.94h-4.61a2,2,0,0,1,0-4h4.61A2,2,0,0,1,403.25,345.94Z" transform="translate(-352.87 -226.75)"/><path class="cls-3" d="M354.87,238V355.46a11.52,11.52,0,0,0,23,0V238h-23Z" transform="translate(-352.87 -226.75)"/><path class="cls-2" d="M474.67,369H366.39a2,2,0,0,1,0-4,9.52,9.52,0,0,0,9.52-9.52V242.57a2,2,0,0,1,4,0V355.46A13.42,13.42,0,0,1,376,365h98.68a11.83,11.83,0,0,0,11.82-11.82V242.57a2,2,0,0,1,4,0V353.15A15.83,15.83,0,0,1,474.67,369Z" transform="translate(-352.87 -226.75)"/><path class="cls-2" d="M488.49,244.57a2,2,0,0,1-2-2V238.8l-7.21-7.21-7.8,7.8a2,2,0,0,1-2.83,0l-7.8-7.8-7.8,7.8a2,2,0,0,1-2.83,0l-7.8-7.8-7.8,7.8a2,2,0,0,1-2.83,0l-7.8-7.8-7.8,7.8a2.06,2.06,0,0,1-2.83,0l-7.8-7.8-7.8,7.8a2,2,0,0,1-2.83,0l-7.8-7.8-7.21,7.21v3.78a2,2,0,1,1-4,0V238a2,2,0,0,1,.59-1.41l9.21-9.21a2,2,0,0,1,2.83,0l7.8,7.8,7.8-7.8a2,2,0,0,1,2.83,0l7.8,7.8,7.8-7.8a2.06,2.06,0,0,1,2.83,0l7.8,7.8,7.8-7.8a2,2,0,0,1,2.83,0l7.8,7.8,7.8-7.8a2,2,0,0,1,2.83,0l7.8,7.8,7.8-7.8a2,2,0,0,1,2.83,0l9.21,9.21a2,2,0,0,1,.59,1.41v4.61A2,2,0,0,1,488.49,244.57Z" transform="translate(-352.87 -226.75)"/><path class="cls-2" d="M366.39,369a13.52,13.52,0,0,1-13.52-13.52V238a2,2,0,0,1,2-2H368.7a2,2,0,0,1,0,4H356.87V355.46a9.52,9.52,0,0,0,9.52,9.52A2,2,0,1,1,366.39,369Z" transform="translate(-352.87 -226.75)"/><path class="cls-2" d="M366.39,357.46a2,2,0,0,1-2-2v-106a2,2,0,0,1,4,0v106A2,2,0,0,1,366.39,357.46Z" transform="translate(-352.87 -226.75)"/></svg>