<svg id="圖層_1" data-name="圖層 1" xmlns="http://www.w3.org/2000/svg" viewBox="0 0 126.84 137.39"><defs><style>.cls-1{fill:#34ca9d;}.cls-2{fill:#282d33;}.cls-3{fill:#fff;}.cls-4{fill:#ffba31;}</style></defs><title>03</title><path class="cls-1" d="M421.81,344.76" transform="translate(-358.39 -229.74)"/><line class="cls-1" x1="65.6" y1="115.02" x2="61.24" y2="115.02"/><path class="cls-1" d="M422,344.76" transform="translate(-358.39 -229.74)"/><line class="cls-1" x1="65.82" y1="115.02" x2="61.46" y2="115.02"/><path class="cls-2" d="M468.77,367.14H375.19a3.74,3.74,0,0,1-3.74-3.74V324.89a3.74,3.74,0,0,1,3.74-3.74h93.58a3.74,3.74,0,0,1,3.74,3.74V363.4A3.74,3.74,0,0,1,468.77,367.14Zm-93-4.36h92.34V325.51H375.81v37.27Z" transform="translate(-358.39 -229.74)"/><line class="cls-1" x1="23.12" y1="104.21" x2="30.45" y2="104.21"/><rect class="cls-1" x="23.12" y="102.03" width="7.34" height="4.36"/><line class="cls-1" x1="35.39" y1="104.21" x2="42.72" y2="104.21"/><rect class="cls-1" x="35.39" y="102.03" width="7.33" height="4.36"/><line class="cls-1" x1="47.66" y1="104.21" x2="54.99" y2="104.21"/><rect class="cls-1" x="47.66" y="102.03" width="7.33" height="4.36"/><line class="cls-1" x1="59.92" y1="104.21" x2="67.26" y2="104.21"/><rect class="cls-1" x="59.92" y="102.03" width="7.33" height="4.36"/><line class="cls-1" x1="72.2" y1="104.21" x2="79.53" y2="104.21"/><rect class="cls-1" x="72.2" y="102.03" width="7.33" height="4.36"/><line class="cls-1" x1="84.47" y1="104.21" x2="91.8" y2="104.21"/><rect class="cls-1" x="84.47" y="102.03" width="7.33" height="4.36"/><line class="cls-1" x1="96.73" y1="104.21" x2="104.06" y2="104.21"/><rect class="cls-1" x="96.73" y="102.03" width="7.33" height="4.36"/><line class="cls-1" x1="23.12" y1="114.41" x2="30.45" y2="114.41"/><rect class="cls-1" x="23.12" y="112.23" width="7.34" height="4.36"/><line class="cls-1" x1="35.39" y1="114.41" x2="42.72" y2="114.41"/><rect class="cls-1" x="35.39" y="112.23" width="7.33" height="4.36"/><line class="cls-1" x1="47.66" y1="114.41" x2="54.99" y2="114.41"/><rect class="cls-1" x="47.66" y="112.23" width="7.33" height="4.36"/><line class="cls-1" x1="59.92" y1="114.41" x2="67.26" y2="114.41"/><rect class="cls-1" x="59.92" y="112.23" width="7.33" height="4.36"/><line class="cls-1" x1="72.2" y1="114.41" x2="79.53" y2="114.41"/><rect class="cls-1" x="72.2" y="112.23" width="7.33" height="4.36"/><line class="cls-1" x1="84.47" y1="114.41" x2="91.8" y2="114.41"/><rect class="cls-1" x="84.47" y="112.23" width="7.33" height="4.36"/><line class="cls-1" x1="96.73" y1="114.41" x2="104.06" y2="114.41"/><rect class="cls-1" x="96.73" y="112.23" width="7.33" height="4.36"/><line class="cls-1" x1="23.12" y1="124.6" x2="30.45" y2="124.6"/><rect class="cls-1" x="23.12" y="122.42" width="7.34" height="4.36"/><line class="cls-1" x1="35.39" y1="124.6" x2="42.72" y2="124.6"/><rect class="cls-1" x="35.39" y="122.42" width="7.33" height="4.36"/><line class="cls-1" x1="47.66" y1="124.6" x2="91.91" y2="124.6"/><rect class="cls-1" x="47.66" y="122.42" width="44.25" height="4.36"/><line class="cls-1" x1="96.73" y1="124.6" x2="104.06" y2="124.6"/><rect class="cls-1" x="96.73" y="122.42" width="7.33" height="4.36"/><line class="cls-3" x1="110.6" y1="47.38" x2="110.6" y2="73.7"/><rect class="cls-2" x="108.42" y="47.38" width="4.36" height="26.32"/><path class="cls-3" d="M374.62,303.44V243.6a3.23,3.23,0,0,1,3.22-3.22h46.86" transform="translate(-358.39 -229.74)"/><path class="cls-2" d="M376.8,303.44h-4.36V243.6a5.41,5.41,0,0,1,5.4-5.4h46.86v4.36H377.85a1,1,0,0,0-1,1v59.84Z" transform="translate(-358.39 -229.74)"/><rect class="cls-4" x="23.1" y="17.49" width="80.65" height="49.25"/><path class="cls-3" d="M473.34,231.92H435a3.58,3.58,0,0,0-3.3,3.82V266.9a3.58,3.58,0,0,0,3.3,3.81h5.88V278l8.62-7.31h23.83a3.58,3.58,0,0,0,3.3-3.81V235.74A3.59,3.59,0,0,0,473.34,231.92Z" transform="translate(-358.39 -229.74)"/><path class="cls-2" d="M438.71,282.72v-9.83H435a5.76,5.76,0,0,1-5.48-6V235.74a5.76,5.76,0,0,1,5.48-6h38.32a5.76,5.76,0,0,1,5.48,6V266.9a5.76,5.76,0,0,1-5.48,6h-23ZM435,234.1a1.48,1.48,0,0,0-1.12,1.64V266.9a1.48,1.48,0,0,0,1.12,1.63h8.05v4.78l5.64-4.78h24.63a1.48,1.48,0,0,0,1.13-1.63V235.74a1.49,1.49,0,0,0-1.13-1.64H435Z" transform="translate(-358.39 -229.74)"/><polygon class="cls-1" points="106.04 20.51 97.96 25.17 89.88 29.84 89.88 20.51 89.88 11.18 97.96 15.84 106.04 20.51"/><path class="cls-1" d="M384.93,301.86v-5.29c0-3,2.75-5.44,6.14-5.44H418c3.39,0,6.14,2.43,6.14,5.44v5.29" transform="translate(-358.39 -229.74)"/><path class="cls-2" d="M426.33,301.86H422v-5.29c0-1.8-1.78-3.26-4-3.26H391.07c-2.18,0-4,1.46-4,3.26v5.29h-4.36v-5.29c0-4.2,3.73-7.61,8.32-7.61H418c4.59,0,8.32,3.42,8.32,7.61v5.29Z" transform="translate(-358.39 -229.74)"/><polygon class="cls-3" points="51.19 61.45 46.03 64.43 40.87 61.45 40.87 50.19 46.03 50.19 51.19 50.19 51.19 61.45"/><path class="cls-2" d="M404.42,296.69l-7.34-4.24v-14.7h14.67v14.7Zm-3-6.75,3,1.72,3-1.72v-7.83h-6v7.83Z" transform="translate(-358.39 -229.74)"/><path class="cls-3" d="M416.6,263.31v11.58c0,6.66-5.4,10.92-12.06,10.92h0c-6.66,0-12.06-4.26-12.06-10.92V263.31" transform="translate(-358.39 -229.74)"/><path class="cls-2" d="M404.54,288c-8.25,0-14.24-5.51-14.24-13.1V263.31h4.36v11.58c0,5.15,4.06,8.74,9.88,8.74s9.88-3.59,9.88-8.74V263.31h4.36v11.58C418.78,282.47,412.79,288,404.54,288Z" transform="translate(-358.39 -229.74)"/><path class="cls-3" d="M398.81,252.48a6.35,6.35,0,0,0-5.31,2.87h-2.18a4.92,4.92,0,0,0-4.92,4.92v9.56l5.8,8V267.49a3.46,3.46,0,0,1,3.46-3.46h19.89a6.35,6.35,0,0,0,6.35-6.35v-5.2H398.81Z" transform="translate(-358.39 -229.74)"/><path class="cls-2" d="M394.37,284.62l-10.15-14.09V260.27a7.11,7.11,0,0,1,7.1-7.1h1.11a8.5,8.5,0,0,1,6.38-2.87h25.27v7.37a8.54,8.54,0,0,1-8.53,8.53H395.66a1.29,1.29,0,0,0-1.28,1.29v17.13Zm-5.8-15.49,1.44,2v-3.63a5.65,5.65,0,0,1,5.64-5.64h19.89a4.18,4.18,0,0,0,4.17-4.17v-3H398.81a4.17,4.17,0,0,0-3.49,1.89l-0.65,1h-3.35a2.75,2.75,0,0,0-2.74,2.74v8.86Z" transform="translate(-358.39 -229.74)"/><rect class="cls-2" x="43.65" y="65.21" width="4.36" height="6.91"/><path class="cls-3" d="M360.57,303.14v5.79s4.23,3.16,7.34,3.16H475.7c3.11,0,7.35-3.16,7.35-3.16v-5.79H360.57Z" transform="translate(-358.39 -229.74)"/><path class="cls-2" d="M475.7,314.27H367.91c-3.73,0-8.16-3.23-8.65-3.59l-0.87-.65V301H485.23V310l-0.87.65C483.86,311,479.43,314.27,475.7,314.27Zm-113-6.48c1.53,1,3.74,2.12,5.17,2.12H475.7c1.42,0,3.64-1.14,5.17-2.12v-2.47H362.74v2.47Z" transform="translate(-358.39 -229.74)"/></svg>