<svg id="圖層_1" data-name="圖層 1" xmlns="http://www.w3.org/2000/svg" viewBox="0 0 149.1 158.58"><defs><style>.cls-1{fill:#34ca9d;}.cls-2{fill:#ffba31;}.cls-3{fill:#34303d;}</style></defs><title>04</title><path class="cls-1" d="M444.2,350.83H363.13a4.38,4.38,0,0,1-4.38-4.38V248a4.38,4.38,0,0,0-4.38-4.38h-3.7a4.38,4.38,0,0,0-4.38,4.38V358.92a4.38,4.38,0,0,0,4.38,4.38h3.7a4.38,4.38,0,0,1,4.38,4.38h0a4.38,4.38,0,0,0,7.48,3.1l6.2-6.2a4.38,4.38,0,0,1,3.1-1.28H447.9a4.38,4.38,0,0,0,3.1-7.48l-3.7-3.7A4.38,4.38,0,0,0,444.2,350.83Z" transform="translate(-346.29 -219.19)"/><rect class="cls-2" x="137.13" y="49.37" width="9.97" height="97.23"/><rect class="cls-3" x="137.13" y="145.61" width="9.97" height="2"/><path class="cls-3" d="M493.39,367.79a2,2,0,0,1-2-2v-97l-2.13-10.66h-1.71l-2.13,10.66v97a2,2,0,0,1-4,0V268.56a2,2,0,0,1,0-.39l2.49-12.47a2,2,0,0,1,2-1.61h5a2,2,0,0,1,2,1.61l2.49,12.47a2,2,0,0,1,0,.39v97.23A2,2,0,0,1,493.39,367.79Z" transform="translate(-346.29 -219.19)"/><path class="cls-3" d="M488.4,377.76a7,7,0,0,1-7-7v-5a2,2,0,0,1,4,0v5a3,3,0,0,0,.88,2.11,3.06,3.06,0,0,0,4.22,0,3,3,0,0,0,.88-2.11v-5a2,2,0,1,1,4,0v5A7,7,0,0,1,488.4,377.76Z" transform="translate(-346.29 -219.19)"/><path class="cls-3" d="M493.39,278h-10a2,2,0,0,1,0-4h10A2,2,0,0,1,493.39,278Z" transform="translate(-346.29 -219.19)"/><path class="cls-3" d="M493.39,288h-10a2,2,0,0,1,0-4h10A2,2,0,0,1,493.39,288Z" transform="translate(-346.29 -219.19)"/><path class="cls-3" d="M488.4,258.09a2,2,0,0,1-2-2V243.62a2,2,0,0,1,4,0v12.47A2,2,0,0,1,488.4,258.09Z" transform="translate(-346.29 -219.19)"/><path class="cls-3" d="M493.39,327.9h-10a2,2,0,0,1,0-4h10A2,2,0,0,1,493.39,327.9Z" transform="translate(-346.29 -219.19)"/><path class="cls-3" d="M461,357.82a2,2,0,0,1-2-2v-5a2,2,0,0,1,2-2h6.21a4.27,4.27,0,0,0,4.26-4.26V241.13a2,2,0,0,1,4,0V344.57a8.27,8.27,0,0,1-8.26,8.26H463v3A2,2,0,0,1,461,357.82Z" transform="translate(-346.29 -219.19)"/><path class="cls-3" d="M441,352.83H363.88a7.13,7.13,0,0,1-7.12-7.12V241.13a2,2,0,0,1,4,0V345.71a3.13,3.13,0,0,0,3.12,3.12H441A2,2,0,0,1,441,352.83Z" transform="translate(-346.29 -219.19)"/><path class="cls-3" d="M461,367.79a2,2,0,0,1-1.41-.59l-14.37-14.37H441a2,2,0,0,1,0-4h5a2,2,0,0,1,1.41.59L459,361v-5.14a2,2,0,0,1,4,0v10A2,2,0,0,1,461,367.79Z" transform="translate(-346.29 -219.19)"/><path class="cls-3" d="M473.44,243.13H358.75a2,2,0,0,1-2-2V229.22a10,10,0,0,1,10-10h99.78a8.89,8.89,0,0,1,8.88,8.88v13.07A2,2,0,0,1,473.44,243.13Zm-112.69-4H471.44V228.06a4.88,4.88,0,0,0-4.88-4.88H366.78a6,6,0,0,0-6,6v9.92Z" transform="translate(-346.29 -219.19)"/><path class="cls-3" d="M371.22,233.16h-5a2,2,0,0,1,0-4h5A2,2,0,0,1,371.22,233.16Z" transform="translate(-346.29 -219.19)"/><path class="cls-3" d="M381.19,233.16h-5a2,2,0,0,1,0-4h5A2,2,0,0,1,381.19,233.16Z" transform="translate(-346.29 -219.19)"/><path class="cls-3" d="M391.16,233.16h-5a2,2,0,0,1,0-4h5A2,2,0,0,1,391.16,233.16Z" transform="translate(-346.29 -219.19)"/><path class="cls-3" d="M466,233.16H396.15a2,2,0,0,1,0-4H466A2,2,0,0,1,466,233.16Z" transform="translate(-346.29 -219.19)"/><path class="cls-3" d="M466,253.1H406.12a2,2,0,0,1,0-4H466A2,2,0,0,1,466,253.1Z" transform="translate(-346.29 -219.19)"/><path class="cls-3" d="M466,263.08H406.12a2,2,0,0,1,0-4H466A2,2,0,0,1,466,263.08Z" transform="translate(-346.29 -219.19)"/><path class="cls-3" d="M466,273H406.12a2,2,0,0,1,0-4H466A2,2,0,0,1,466,273Z" transform="translate(-346.29 -219.19)"/><path class="cls-3" d="M466,283H406.12a2,2,0,0,1,0-4H466A2,2,0,0,1,466,283Z" transform="translate(-346.29 -219.19)"/><path class="cls-3" d="M466,293H366.23a2,2,0,1,1,0-4H466A2,2,0,0,1,466,293Z" transform="translate(-346.29 -219.19)"/><path class="cls-3" d="M466,303H366.23a2,2,0,0,1,0-4H466A2,2,0,0,1,466,303Z" transform="translate(-346.29 -219.19)"/><path class="cls-3" d="M466,312.94H366.23a2,2,0,0,1,0-4H466A2,2,0,0,1,466,312.94Z" transform="translate(-346.29 -219.19)"/><path class="cls-3" d="M383.69,283a2,2,0,0,1-2-2V251.1a2,2,0,0,1,4,0V281A2,2,0,0,1,383.69,283Z" transform="translate(-346.29 -219.19)"/><path class="cls-3" d="M398.64,260.58a2,2,0,0,1-2-2V253.1H370.73v5.48a2,2,0,0,1-4,0V249.1h33.92v9.48A2,2,0,0,1,398.64,260.58Z" transform="translate(-346.29 -219.19)"/><path class="cls-3" d="M391.16,283h-15a2,2,0,0,1,0-4h15A2,2,0,0,1,391.16,283Z" transform="translate(-346.29 -219.19)"/><rect class="cls-2" x="19.95" y="99.24" width="99.73" height="24.93"/><path class="cls-3" d="M408.62,332.89h-5a2,2,0,0,1,0-4h5A2,2,0,0,1,408.62,332.89Z" transform="translate(-346.29 -219.19)"/><path class="cls-3" d="M418.59,332.89h-5a2,2,0,0,1,0-4h5A2,2,0,0,1,418.59,332.89Z" transform="translate(-346.29 -219.19)"/><path class="cls-3" d="M428.56,332.89h-5a2,2,0,0,1,0-4h5A2,2,0,0,1,428.56,332.89Z" transform="translate(-346.29 -219.19)"/></svg>