<svg id="圖層_1" data-name="圖層 1" xmlns="http://www.w3.org/2000/svg" viewBox="0 0 125.67 138.51"><defs><style>.cls-1{fill:#ffc252;}.cls-2{fill:#34ca9d;}.cls-3{fill:#34303d;}</style></defs><title>05</title><rect class="cls-1" x="19.36" y="19.36" width="95.46" height="30.37"/><rect class="cls-1" x="19.36" y="106.14" width="95.46" height="30.37"/><rect class="cls-2" x="114.82" y="60.58" width="10.85" height="21.7"/><path class="cls-3" d="M481.8,284.77h-8.68a2,2,0,0,1,0-4h6.68V267.41h-6.68a2,2,0,0,1,0-4h8.68a2,2,0,0,1,2,2v17.36A2,2,0,0,1,481.8,284.77Z" transform="translate(-358.3 -228.7)"/><path class="cls-3" d="M481.8,258.73h-8.68a2,2,0,0,1,0-4h6.68V241.38H369a2,2,0,0,1,0-4H481.8a2,2,0,0,1,2,2v17.36A2,2,0,0,1,481.8,258.73Z" transform="translate(-358.3 -228.7)"/><path class="cls-3" d="M473.12,367.21H369a10.68,10.68,0,0,1-10.68-10.68V239.38a2,2,0,0,1,4,0,6.68,6.68,0,0,0,6.68,6.68H473.12a2,2,0,0,1,2,2V365.21A2,2,0,0,1,473.12,367.21ZM362.3,247.71V356.53a6.68,6.68,0,0,0,6.68,6.68H471.12V250.05H369A10.6,10.6,0,0,1,362.3,247.71Z" transform="translate(-358.3 -228.7)"/><path class="cls-3" d="M360.3,241.38a2,2,0,0,1-2-2A10.68,10.68,0,0,1,369,228.7H475.29a2,2,0,0,1,0,4H369a6.68,6.68,0,0,0-6.68,6.68A2,2,0,0,1,360.3,241.38Z" transform="translate(-358.3 -228.7)"/><path class="cls-3" d="M377.66,367.21a2,2,0,0,1-2-2V248.05a2,2,0,0,1,4,0V365.21A2,2,0,0,1,377.66,367.21Z" transform="translate(-358.3 -228.7)"/><path class="cls-3" d="M466.61,267.41H384.17a2,2,0,0,1,0-4h82.44A2,2,0,0,1,466.61,267.41Z" transform="translate(-358.3 -228.7)"/><path class="cls-3" d="M403.7,258.73H384.17a2,2,0,1,1,0-4H403.7A2,2,0,1,1,403.7,258.73Z" transform="translate(-358.3 -228.7)"/><path class="cls-3" d="M433,311.68H384.17a2,2,0,0,1,0-4H433A2,2,0,0,1,433,311.68Z" transform="translate(-358.3 -228.7)"/><path class="cls-3" d="M431.9,303H384.17a2,2,0,0,1,0-4H431.9A2,2,0,1,1,431.9,303Z" transform="translate(-358.3 -228.7)"/><path class="cls-3" d="M466.61,358.53h-21.7a2,2,0,0,1,0-4h21.7A2,2,0,1,1,466.61,358.53Z" transform="translate(-358.3 -228.7)"/><path class="cls-3" d="M440.58,358.53H431.9a2,2,0,1,1,0-4h8.68A2,2,0,0,1,440.58,358.53Z" transform="translate(-358.3 -228.7)"/><path class="cls-3" d="M369,336.84a2,2,0,0,1-2-2V330.5a2,2,0,0,1,4,0v4.34A2,2,0,0,1,369,336.84Z" transform="translate(-358.3 -228.7)"/><path class="cls-3" d="M369,328.16a2,2,0,0,1-2-2v-4.34a2,2,0,0,1,4,0v4.34A2,2,0,0,1,369,328.16Z" transform="translate(-358.3 -228.7)"/><path class="cls-3" d="M369,319.48a2,2,0,0,1-2-2v-4.34a2,2,0,0,1,4,0v4.34A2,2,0,0,1,369,319.48Z" transform="translate(-358.3 -228.7)"/><path class="cls-3" d="M369,310.8a2,2,0,0,1-2-2v-4.34a2,2,0,0,1,4,0v4.34A2,2,0,0,1,369,310.8Z" transform="translate(-358.3 -228.7)"/><path class="cls-3" d="M369,302.13a2,2,0,0,1-2-2v-4.34a2,2,0,0,1,4,0v4.34A2,2,0,0,1,369,302.13Z" transform="translate(-358.3 -228.7)"/><path class="cls-3" d="M369,293.45a2,2,0,0,1-2-2v-4.34a2,2,0,0,1,4,0v4.34A2,2,0,0,1,369,293.45Z" transform="translate(-358.3 -228.7)"/><path class="cls-3" d="M369,284.77a2,2,0,0,1-2-2v-4.34a2,2,0,0,1,4,0v4.34A2,2,0,0,1,369,284.77Z" transform="translate(-358.3 -228.7)"/></svg>