<svg id="圖層_1" data-name="圖層 1" xmlns="http://www.w3.org/2000/svg" viewBox="0 0 133.16 142.38"><defs><style>.cls-1{fill:#30241c;}.cls-2{fill:#34303d;}.cls-3{fill:#fff;}.cls-4{fill:#282d33;}.cls-5{fill:#34ca9d;}.cls-6{fill:#ffba31;}</style></defs><title>06</title><path d="M380.61,350.57h-0.28a1,1,0,0,1,.07-1.9h0.23A1,1,0,0,1,380.61,350.57Zm9.33-1.55a1,1,0,0,1-.33-1.84l0.21-.08a1,1,0,1,1,.69,1.78l-0.23.09A1,1,0,0,1,389.94,349Zm-18.77-.66a1,1,0,0,1-.4-0.09l-0.23-.11a1,1,0,0,1,.81-1.72l0.21,0.1A1,1,0,0,1,371.17,348.37Zm27-4.5a1,1,0,0,1-.66-1.64l0.16-.16a1,1,0,1,1,1.33,1.37l-0.18.17A1,1,0,0,1,398.15,343.87Zm-34.81-1.22a1,1,0,0,1-.7-0.31l-0.17-.19a1,1,0,0,1,1.42-1.27l0.15,0.17A1,1,0,0,1,363.34,342.65Zm40.37-6.72a1,1,0,0,1-.87-1.33l0.09-.21a1,1,0,0,1,1.75.74l-0.1.23A1,1,0,0,1,403.71,335.92Zm-45.36-1.59a1,1,0,0,1-.9-0.63l-0.08-.23a1,1,0,0,1,1.8-.62l0.08,0.22A1,1,0,0,1,358.35,334.33Zm47.38-7.9h0a1,1,0,0,1-.94-1v-0.23a1,1,0,0,1,1.9,0v0.25A1,1,0,0,1,405.73,326.44ZM357,324.73h-0.06a1,1,0,0,1-.9-1l0-.25a1,1,0,1,1,1.9.13v0.23A1,1,0,0,1,357,324.73Zm47.84-5a1,1,0,0,1-.92-0.7l-0.06-.22a1,1,0,0,1,1.83-.52l0.07,0.24A1,1,0,0,1,404.85,319.69Zm-45.35-4.33a1,1,0,0,1-.85-1.38l0.11-.22a1,1,0,1,1,1.7.86l-0.1.21A1,1,0,0,1,359.49,315.37Zm41-4.31a1,1,0,0,1-.75-0.36l-0.14-.18a1,1,0,1,1,1.48-1.2l0.16,0.2A1,1,0,0,1,400.45,311.05Zm-35-3.34a1,1,0,0,1-.62-1.67l0.19-.16a1,1,0,0,1,1.23,1.46l-0.17.15A1,1,0,0,1,365.45,307.71ZM393,304.8a1,1,0,0,1-.45-0.12l-0.2-.11a1,1,0,1,1,.9-1.68L393.5,303A1,1,0,0,1,393,304.8ZM373.91,303a1,1,0,0,1-.29-1.86l0.24-.07a1,1,0,0,1,.56,1.82l-0.22.07A1,1,0,0,1,373.91,303Zm9.88-1h-0.1l-0.23,0a1,1,0,1,1,.17-1.9l0.25,0A1,1,0,0,1,383.78,301.94Z" transform="translate(-355.05 -226.52)"/><path class="cls-1" d="M380.61,351.57H380.3a2,2,0,1,1,.14-3.9h0.23A2,2,0,0,1,380.61,351.57Zm0-2h0Zm9.33,0.45a2,2,0,0,1-.69-3.78l0.2-.08a2,2,0,0,1,1.41,3.64l-0.24.09A2,2,0,0,1,389.94,350Zm-18.77-.66a1.94,1.94,0,0,1-.81-0.18l-0.23-.11a2,2,0,1,1,1.66-3.53l0.2,0.09A2,2,0,0,1,371.17,349.37Zm0-2h0Zm27-2.51a2,2,0,0,1-1.42-.61,2,2,0,0,1,.08-2.76l0.16-.15a2,2,0,0,1,2.72,2.8l-0.18.18A2,2,0,0,1,398.15,344.87Zm-34.81-1.22a2,2,0,0,1-1.44-.63l-0.17-.19a2,2,0,0,1,.15-2.76,2,2,0,0,1,1.41-.49,1.94,1.94,0,0,1,1.35.65l0.15,0.16A2,2,0,0,1,363.34,343.65Zm0-2,0,0,0,0h0Zm40.37-4.72a2,2,0,0,1-1.79-2.74L402,334a2,2,0,0,1,3.59,1.53l-0.1.24A2,2,0,0,1,403.71,336.92Zm-45.36-1.59a2,2,0,0,1-1.84-1.3l-0.08-.24a2,2,0,0,1,1.21-2.48,2,2,0,0,1,2.48,1.21l0.07,0.21A2,2,0,0,1,358.35,335.33Zm47.38-7.9h0a2,2,0,0,1-1.94-2v-0.23a2,2,0,0,1,3.9,0v0.25A2,2,0,0,1,405.73,327.44ZM357,325.73h-0.16a1.94,1.94,0,0,1-1.79-2.06l0-.26a1.94,1.94,0,0,1,.66-1.34,1.92,1.92,0,0,1,1.42-.47,2,2,0,0,1,1.81,2.08v0.22A2,2,0,0,1,357,325.73Zm0-2h0Zm47.89-3.09a2,2,0,0,1-1.88-1.43l-0.06-.21a2,2,0,0,1,3.76-1.07l0.07,0.24A2,2,0,0,1,404.85,320.69Zm-45.35-4.33a2,2,0,0,1-1.75-2.82l0.11-.22a2,2,0,1,1,3.48,1.77l-0.1.2A1.94,1.94,0,0,1,359.49,316.37Zm0-2h0Zm41-2.34a1.94,1.94,0,0,1-1.53-.74l-0.13-.17a2,2,0,0,1,.29-2.75,2,2,0,0,1,2.75.29l0.16,0.2A2,2,0,0,1,400.45,312.05Zm-35-3.34a2,2,0,0,1-1.28-3.43l0.19-.17a2,2,0,1,1,2.52,3l-0.17.15A2,2,0,0,1,365.45,308.71Zm0-2h0ZM393,305.8a2,2,0,0,1-.93-0.24l-0.2-.11a2,2,0,1,1,1.85-3.44l0.22,0.12A2,2,0,0,1,393,305.8Zm0-2h0Zm-19.13.17a2,2,0,0,1-.59-3.81l0.24-.08a2,2,0,1,1,1.16,3.73l-0.22.07A1.94,1.94,0,0,1,373.91,304Zm0-2h0Zm9.89,1-0.41,0a2,2,0,0,1,.35-3.89l0.25,0A2,2,0,0,1,383.78,302.94Zm0-2v0h0Z" transform="translate(-355.05 -226.52)"/><rect class="cls-2" x="12.72" width="2.39" height="7.98"/><rect class="cls-2" x="12.72" y="12.42" width="2.39" height="7.98"/><rect class="cls-2" x="16.13" y="9" width="7.98" height="2.39"/><rect class="cls-2" x="3.72" y="9" width="7.98" height="2.39"/><path class="cls-3" d="M383.49,365.88v-45c0-6.29,5.76-11.39,12.86-11.39h56.45c7.1,0,12.86,5.1,12.86,11.39v45" transform="translate(-355.05 -226.52)"/><path class="cls-4" d="M467.8,368.9h-4.25V320.83c0-5.11-4.82-9.26-10.74-9.26H396.36c-5.92,0-10.74,4.15-10.74,9.26v45h-4.25v-45c0-7.45,6.72-13.51,15-13.51h56.45c8.26,0,15,6.06,15,13.51V368.9Z" transform="translate(-355.05 -226.52)"/><polygon class="cls-3" points="80.34 83.04 69.53 89.28 58.72 83.04 58.72 59.44 69.53 59.44 80.34 59.44 80.34 83.04"/><path class="cls-4" d="M424.58,318.25l-12.93-7.47v-27h25.87v27Zm-8.68-9.92,8.68,5,8.68-5V288.09H415.9v20.24Z" transform="translate(-355.05 -226.52)"/><path class="cls-3" d="M450,278.87a25.27,25.27,0,0,1-25.27,25.27h0a25.27,25.27,0,0,1-25.27-25.27v-22c0-14,11.31-12.91,25.27-12.91h0c14,0,25.27-1,25.27,12.91v22Z" transform="translate(-355.05 -226.52)"/><path class="cls-4" d="M424.74,306.26a27.43,27.43,0,0,1-27.4-27.4v-22c0-15.05,12.25-15.05,22.09-15.05h10.61c9.84,0,22.09,0,22.09,15.05v22A27.43,27.43,0,0,1,424.74,306.26Zm-5.31-60.15c-12.13,0-17.84,1.07-17.84,10.8v22a23.15,23.15,0,1,0,46.29,0v-22c0-9.74-5.71-10.8-17.84-10.8H419.44Z" transform="translate(-355.05 -226.52)"/><rect class="cls-4" x="56.76" y="43.14" width="4.61" height="4.25"/><rect class="cls-4" x="78.02" y="43.14" width="4.61" height="4.25"/><path class="cls-5" d="M447.08,240.5v-1.65a4.2,4.2,0,0,0-4.16-4.25H406.56a4.2,4.2,0,0,0-4.16,4.25v1.65a9,9,0,0,0-8.57,9L396,279.3l4.11,4.25s1.88-23.94,4.46-31.77l20.22,3.73L445,251.78c2.58,7.83,4.46,31.77,4.46,31.77l4.11-4.25,2.13-29.76A9,9,0,0,0,447.08,240.5Z" transform="translate(-355.05 -226.52)"/><path class="cls-4" d="M447.67,288.42l-0.37-4.7c0-.22-1.64-20.62-3.85-29.5l-18.7,3.45L406,254.22c-2.21,8.87-3.84,29.27-3.85,29.49l-0.37,4.7-7.92-8.2-2.19-30.68a11.08,11.08,0,0,1,8.57-10.91,6.33,6.33,0,0,1,6.28-6.16h36.36a6.33,6.33,0,0,1,6.28,6.16,11.08,11.08,0,0,1,8.57,10.91v0.15l-2.18,30.53Zm-1.27-39.06,0.58,1.76c1.94,5.9,3.46,20.16,4.15,27.6l0.33-.34,2.06-28.9a6.8,6.8,0,0,0-6.51-6.85l-2.06-.07v-3.7a2.08,2.08,0,0,0-2-2.13H406.56a2.08,2.08,0,0,0-2,2.13v3.7l-2.06.07a6.81,6.81,0,0,0-6.52,6.85l2.06,28.9,0.33,0.34c0.69-7.44,2.21-21.7,4.15-27.6l0.58-1.76,21.66,4Z" transform="translate(-355.05 -226.52)"/><path class="cls-3" d="M401.17,268.7c-2.52,0-6.78,1.38-7,3.65l-0.84,8c-0.24,2.26,3.64,4.52,6.11,5Z" transform="translate(-355.05 -226.52)"/><path class="cls-4" d="M401.31,287.92l-2.28-.45c-2.84-.56-8.23-3.37-7.82-7.32l0.84-8c0.41-3.92,6.09-5.55,9-5.55l2.44,0Zm-2.53-16.72a4.56,4.56,0,0,0-2.51,1.4l-0.83,8a4.74,4.74,0,0,0,2.17,1.86Z" transform="translate(-355.05 -226.52)"/><path class="cls-3" d="M448,269.26c2.52,0,6.82,1.55,7.12,3.82l1.06,8c0.3,2.27-3.52,4.44-6,4.87Z" transform="translate(-355.05 -226.52)"/><path class="cls-4" d="M448.36,288.46l-2.81-21.36,2.45,0c3,0,8.68,1.74,9.2,5.67l1.06,8c0.53,4-4.86,6.74-7.72,7.24Zm2.1-16.61L452,283.13a4.35,4.35,0,0,0,2.1-1.78l-1.06-8A4.74,4.74,0,0,0,450.47,271.85Z" transform="translate(-355.05 -226.52)"/><polygon class="cls-6" points="66.56 99.95 63.57 94.77 66.56 89.59 72.54 89.59 75.53 94.77 72.54 99.95 66.56 99.95"/><path class="cls-4" d="M428.82,328.6h-8.43l-4.22-7.3,4.22-7.3h8.43l4.22,7.3Zm-6-4.25h3.52l1.76-3.05-1.76-3.05h-3.52l-1.76,3.05Z" transform="translate(-355.05 -226.52)"/><polyline class="cls-6" points="64.64 109.39 66.56 99.96 72.54 99.96 74.47 109.39"/><polygon class="cls-4" points="72.38 109.81 70.8 102.08 68.3 102.08 66.72 109.81 62.55 108.96 64.83 97.83 74.27 97.83 76.55 108.96 72.38 109.81"/><polygon class="cls-3" points="57.56 97.49 69.52 89.59 58.51 83.23 57.56 97.49"/><path class="cls-4" d="M410.21,328.15l1.45-21.95L428.61,316Zm5.24-14.85L415,319.88l5.51-3.64Z" transform="translate(-355.05 -226.52)"/><polygon class="cls-3" points="81.54 97.49 69.58 89.59 80.59 83.23 81.54 97.49"/><path class="cls-4" d="M439,328.16L420.6,316l16.94-9.78Zm-10.32-11.92,5.51,3.64-0.44-6.58Z" transform="translate(-355.05 -226.52)"/><path class="cls-3" d="M419.3,288.59a6,6,0,0,0,10.89,0" transform="translate(-355.05 -226.52)"/><path class="cls-4" d="M424.74,294.2a8.52,8.52,0,0,1-7.29-4.55l3.68-2.12a3.89,3.89,0,0,0,7.21,0l3.68,2.12A8.52,8.52,0,0,1,424.74,294.2Z" transform="translate(-355.05 -226.52)"/><path class="cls-6" d="M401.17,309.76s0.87,36.65,65,40.19l-0.49,14.23s-72.36-.41-79.61-50.16C386.06,314,392.86,309.24,401.17,309.76Z" transform="translate(-355.05 -226.52)"/><path class="cls-2" d="M465.67,366.18h0A135,135,0,0,1,428,359.65c-25.62-8.53-40.79-24.2-43.87-45.34a2,2,0,0,1,.83-1.92c0.3-.21,7.48-5.19,16.39-4.62a2,2,0,0,1,1.88,1.94c0,0.12.38,8.79,8.16,17.74,10.45,12,29.45,19.1,54.94,20.51a2,2,0,0,1,1.89,2.07l-0.49,14.23A2,2,0,0,1,465.67,366.18ZM388.24,315c7.23,41.82,64.19,46.57,75.5,47.09l0.35-10.29c-32.5-2.18-48.38-13.12-56-22a36.76,36.76,0,0,1-8.74-18.1A24.66,24.66,0,0,0,388.24,315Z" transform="translate(-355.05 -226.52)"/><polygon class="cls-6" points="28.44 83.23 32.93 92.98 42.96 94.54 35.7 102.13 37.41 112.84 28.44 107.78 19.47 112.84 21.18 102.13 13.92 94.54 23.95 92.98 28.44 83.23"/><path class="cls-2" d="M392.46,341.36a2,2,0,0,1-1-.26l-8-4.5-8,4.5a2,2,0,0,1-3-2.06l1.56-9.73-6.57-6.87a2,2,0,0,1,1.14-3.36l9-1.4,4-8.77a2,2,0,0,1,1.82-1.16h0a2,2,0,0,1,1.82,1.16l4,8.77,9,1.4a2,2,0,0,1,1.14,3.36l-6.57,6.87,1.56,9.73A2,2,0,0,1,392.46,341.36Zm-19.4-18.91,4.61,4.82a2,2,0,0,1,.53,1.7l-1.06,6.62,5.36-3a2,2,0,0,1,2,0l5.36,3L388.78,329a2,2,0,0,1,.53-1.7l4.61-4.82-6.25-1a2,2,0,0,1-1.51-1.14l-2.67-5.8-2.67,5.8a2,2,0,0,1-1.51,1.14Z" transform="translate(-355.05 -226.52)"/><rect class="cls-2" x="121.76" y="27.62" width="2.39" height="7.98"/><rect class="cls-2" x="121.76" y="40.04" width="2.39" height="7.98"/><rect class="cls-2" x="125.17" y="36.62" width="7.98" height="2.39"/><rect class="cls-2" x="112.76" y="36.62" width="7.98" height="2.39"/></svg>