<svg id="圖層_1" data-name="圖層 1" xmlns="http://www.w3.org/2000/svg" viewBox="0 0 121.14 146.09"><defs><style>.cls-1{fill:#fff;}.cls-2{fill:#282d33;}.cls-3{fill:#ffba31;}.cls-4{fill:#34ca9d;}</style></defs><title>07</title><path class="cls-1" d="M427.79,327v-5a23.35,23.35,0,0,0,4.26-2.14l11-13.05V290.55h0.05l-0.09-1h-2.39a6.21,6.21,0,0,0-5.25,2.9v-3.19h0V270.43a4.24,4.24,0,0,0-7.58-2.62V264a4.25,4.25,0,1,0-8.51,0v1.2a4.24,4.24,0,0,0-7.58,2.61v5.48a4.24,4.24,0,0,0-7.58,2.61v36a10.42,10.42,0,0,0,4,8.26V327" transform="translate(-361.08 -224.97)"/><path class="cls-2" d="M411.18,326.84H406.6V320.7a12.15,12.15,0,0,1-4-9.08V289h4.58v22.67a7.64,7.64,0,0,0,3.1,6.17l0.92,0.69v8.36Z" transform="translate(-361.08 -224.97)"/><path class="cls-2" d="M429.78,326.84H425.2v-7.31l1.75-.43a17.05,17.05,0,0,0,3.54-1.72l10-11.88v-6.9l-0.16,0,0.16-1.79v-4.69a3.4,3.4,0,0,0-3,3.37v7.68l-0.08,1.93-4.57-.09,0-16h3.47a7.93,7.93,0,0,1,4.6-1.46h4l0,0.19h0.13l0,1.93,0.14,2.13-0.16,0v15.4l-11.53,13.71-0.3.19a29.3,29.3,0,0,1-3.45,1.86v3.91Z" transform="translate(-361.08 -224.97)"/><polyline class="cls-3" points="36.65 146.08 36.65 101.16 71.35 101.16 71.35 146.08"/><path class="cls-2" d="M414.61,289.08H410v-13.5a1.44,1.44,0,0,0-2.88,0v13.5h-4.58v-13.5a6,6,0,0,1,12,0v13.5Z" transform="translate(-361.08 -224.97)"/><path class="cls-2" d="M422.2,289.08h-4.58V267.49a1.44,1.44,0,1,0-2.88,0v21.59h-4.58V267.49a6,6,0,1,1,12,0v21.59Z" transform="translate(-361.08 -224.97)"/><path class="cls-2" d="M429.78,289.08H425.2V263.68a1.44,1.44,0,1,0-2.88,0v25.41h-4.58V263.68a6,6,0,1,1,12,0v25.41Z" transform="translate(-361.08 -224.97)"/><path class="cls-2" d="M437.36,289.08h-4.58v-19a1.44,1.44,0,0,0-2.88,0v19h-4.58v-19a6,6,0,0,1,12,0v19Z" transform="translate(-361.08 -224.97)"/><path class="cls-1" d="M378.47,371.06v-1.52a23.33,23.33,0,0,1-4.26-2.14l-11-13.05V338.05h-0.05l0.09-1h2.38a6.21,6.21,0,0,1,5.25,2.9v-3.19h0V317.93a4.24,4.24,0,0,1,7.58-2.61v-3.83a4.25,4.25,0,0,1,8.51,0v1.2a4.24,4.24,0,0,1,7.58,2.62v5.48a4.24,4.24,0,0,1,7.58,2.61v36a10.42,10.42,0,0,1-4,8.26v3.36" transform="translate(-361.08 -224.97)"/><path class="cls-2" d="M399.67,370.91h-4.58V366l0.92-.69a7.64,7.64,0,0,0,3.1-6.17V336.45h4.58v22.67a12.16,12.16,0,0,1-4,9.08v2.71Z" transform="translate(-361.08 -224.97)"/><path class="cls-2" d="M378.24,371.05l-0.49-.14h-1.25v-0.48a29.07,29.07,0,0,1-3.45-1.86l-0.3-.19-11.53-13.71V344.5l-0.07-1.71,0.07,0V339.3l-0.13,0,0.13-2.47V335.2h0.1V335h4.07a7.93,7.93,0,0,1,4.6,1.46h3.47l0,16-4.57.09-0.08-1.83V343a3.4,3.4,0,0,0-3-3.37v4.65L366,346l-0.2.07v7l10,11.88a17.09,17.09,0,0,0,3.53,1.72l1.75,0.43v3.88h-2.8Z" transform="translate(-361.08 -224.97)"/><path class="cls-2" d="M403.69,336.58h-4.58v-13.5a1.44,1.44,0,1,0-2.88,0v13.5h-4.58v-13.5a6,6,0,1,1,12,0v13.5Z" transform="translate(-361.08 -224.97)"/><path class="cls-2" d="M396.1,336.58h-4.58V315a1.44,1.44,0,0,0-2.88,0v21.59h-4.58V315a6,6,0,0,1,12,0v21.59Z" transform="translate(-361.08 -224.97)"/><path class="cls-2" d="M388.52,336.58h-4.58V311.18a1.44,1.44,0,0,0-2.88,0v25.41h-4.58V311.18a6,6,0,0,1,12,0v25.41Z" transform="translate(-361.08 -224.97)"/><path class="cls-2" d="M380.94,336.58h-4.58v-19a1.44,1.44,0,1,0-2.88,0v19h-4.58v-19a6,6,0,0,1,12,0v19Z" transform="translate(-361.08 -224.97)"/><path class="cls-1" d="M457,362.44v-5a23.36,23.36,0,0,1-4.26-2.14l-11-13.05V326h-0.05l0.09-1h2.38a6.21,6.21,0,0,1,5.25,2.9v-3.19h0V305.89a4.24,4.24,0,0,1,7.58-2.61v-3.84a4.25,4.25,0,0,1,8.51,0v1.2a4.24,4.24,0,0,1,7.58,2.61v5.48a4.24,4.24,0,0,1,7.58,2.61v36a10.42,10.42,0,0,1-4,8.26v6.79" transform="translate(-361.08 -224.97)"/><path class="cls-2" d="M478.2,362.3h-4.58v-8.36l0.92-.69a7.65,7.65,0,0,0,3.1-6.17V324.41h4.58v22.67a12.16,12.16,0,0,1-4,9.08v6.14Z" transform="translate(-361.08 -224.97)"/><path class="cls-2" d="M459.61,362.3H455v-3.91a29.18,29.18,0,0,1-3.45-1.86l-0.3-.19-11.53-13.71V332.45l-0.07-1.71,0.07,0v-3.46l-0.14,0,0.14-2.46v-1.61h0.1v-0.22h4.07a7.93,7.93,0,0,1,4.6,1.46H452l0,16-4.57.09-0.08-1.83v-7.78a3.4,3.4,0,0,0-3-3.37v4.65l0.2,1.74-0.2.07v7l10,11.88a17.1,17.1,0,0,0,3.53,1.72l1.75,0.43v7.31Z" transform="translate(-361.08 -224.97)"/><polyline class="cls-4" points="119.13 146.09 119.13 136.62 84.44 136.62 84.44 146.09"/><path class="cls-2" d="M482.23,324.54h-4.58V311a1.44,1.44,0,1,0-2.88,0v13.5H470.2V311a6,6,0,1,1,12,0v13.5Z" transform="translate(-361.08 -224.97)"/><path class="cls-2" d="M474.64,324.54h-4.58V303a1.44,1.44,0,1,0-2.88,0v21.59h-4.58V303a6,6,0,1,1,12,0v21.59Z" transform="translate(-361.08 -224.97)"/><path class="cls-2" d="M467.06,324.54h-4.58V299.13a1.44,1.44,0,1,0-2.88,0v25.41H455V299.13a6,6,0,1,1,12,0v25.41Z" transform="translate(-361.08 -224.97)"/><path class="cls-2" d="M459.47,324.54H454.9v-19a1.44,1.44,0,0,0-2.88,0v19h-4.58v-19a6,6,0,0,1,12,0v19Z" transform="translate(-361.08 -224.97)"/><path class="cls-2" d="M388.05,271.84h-9.87a1.69,1.69,0,0,1,0-3.39h9.87A1.69,1.69,0,0,1,388.05,271.84Z" transform="translate(-361.08 -224.97)"/><path class="cls-2" d="M465.14,271.84h-9.86a1.69,1.69,0,0,1,0-3.39h9.86A1.69,1.69,0,0,1,465.14,271.84Z" transform="translate(-361.08 -224.97)"/><path class="cls-2" d="M421.67,238.23a1.69,1.69,0,0,1-1.69-1.69v-9.87a1.69,1.69,0,1,1,3.39,0v9.87A1.69,1.69,0,0,1,421.67,238.23Z" transform="translate(-361.08 -224.97)"/><path class="cls-2" d="M398.18,248.36a1.69,1.69,0,0,1-1.2-.5l-2.67-2.67a1.69,1.69,0,0,1,2.4-2.4l2.67,2.67A1.69,1.69,0,0,1,398.18,248.36Z" transform="translate(-361.08 -224.97)"/><path class="cls-2" d="M445.15,248.36a1.69,1.69,0,0,1-1.2-2.89l2.66-2.67a1.69,1.69,0,1,1,2.4,2.39l-2.66,2.67A1.69,1.69,0,0,1,445.15,248.36Z" transform="translate(-361.08 -224.97)"/></svg>