<svg id="圖層_1" data-name="圖層 1" xmlns="http://www.w3.org/2000/svg" viewBox="0 0 176.55 165.4"><defs><style>.cls-1{fill:#34303d;}.cls-2{fill:none;}.cls-3{fill:#34ca9d;}.cls-4{fill:#ffba31;}.cls-5{fill:#282d33;}</style></defs><title>08</title><rect class="cls-1" x="8.47" y="48.87" width="2.25" height="7.51" rx="1.12" ry="1.12"/><rect class="cls-1" x="8.47" y="60.56" width="2.25" height="7.51" rx="1.12" ry="1.12"/><rect class="cls-1" x="11.68" y="57.35" width="7.51" height="2.25" rx="1.12" ry="1.12"/><rect class="cls-1" y="57.35" width="7.51" height="2.25" rx="1.12" ry="1.12"/><rect class="cls-1" x="165.82" width="2.25" height="7.51" rx="1.12" ry="1.12"/><rect class="cls-1" x="165.82" y="11.68" width="2.25" height="7.51" rx="1.12" ry="1.12"/><rect class="cls-1" x="169.04" y="8.47" width="7.51" height="2.25" rx="1.12" ry="1.12"/><rect class="cls-1" x="157.35" y="8.47" width="7.51" height="2.25" rx="1.12" ry="1.12"/><path class="cls-2" d="M376.27,280.48h-0.41l1.22,2A8.09,8.09,0,0,1,376.27,280.48Z" transform="translate(-333.45 -215.61)"/><path class="cls-2" d="M479.86,315.52l2.12-3.28-1.26-26.54a5.1,5.1,0,0,1-1.73,0l-0.2,4.15v0l-1.06,22.36Z" transform="translate(-333.45 -215.61)"/><path class="cls-2" d="M484.72,283a7,7,0,0,1-.77,1v0.3Z" transform="translate(-333.45 -215.61)"/><path class="cls-2" d="M383.63,282a3.79,3.79,0,0,0,1.08-1.47h-5a3.81,3.81,0,0,0,1.09,1.48A2.17,2.17,0,0,0,383.63,282Z" transform="translate(-333.45 -215.61)"/><path class="cls-2" d="M436,283a6.9,6.9,0,0,1-.75.93v0.3Z" transform="translate(-333.45 -215.61)"/><polygon class="cls-2" points="46.37 165.4 51.12 165.4 48.83 137.04 46.37 165.4"/><path class="cls-2" d="M382.24,315.52l2.12-3.28-1.06-22.36v0l-0.2-4.15a5.11,5.11,0,0,1-1.74,0l-0.2,4.15v0l-1.05,22.36Z" transform="translate(-333.45 -215.61)"/><path class="cls-2" d="M377,313.59a1.66,1.66,0,0,1-.26-1l1.06-22.42L372,280.48h-2.42a5.64,5.64,0,0,0-5.56,4.68l-7.85,45.13,4.3,1.18,4.87-22.9V297a1.71,1.71,0,0,1,1.38-1.72,1.65,1.65,0,0,1,1.93,1.63v11.88s0,0,0,0v17.71h11.93v-7.41Z" transform="translate(-333.45 -215.61)"/><path class="cls-2" d="M475.05,283.07l0.7,1.17v-0.29A6.93,6.93,0,0,1,475.05,283.07Z" transform="translate(-333.45 -215.61)"/><path class="cls-2" d="M388.6,280.48h-0.41a8.1,8.1,0,0,1-.81,2Z" transform="translate(-333.45 -215.61)"/><path class="cls-2" d="M426.31,283l0.73,1.22V284A6.86,6.86,0,0,1,426.31,283Z" transform="translate(-333.45 -215.61)"/><path class="cls-2" d="M479.86,282.46a2.27,2.27,0,0,0,1.39-.51,3.79,3.79,0,0,0,1.09-1.48h-5a3.78,3.78,0,0,0,1.09,1.47A2.26,2.26,0,0,0,479.86,282.46Z" transform="translate(-333.45 -215.61)"/><path class="cls-2" d="M473.9,280.48h-0.4l1,1.66A8.1,8.1,0,0,1,473.9,280.48Z" transform="translate(-333.45 -215.61)"/><path class="cls-2" d="M431.15,315.53l2.13-3.29L432,285.7a5.11,5.11,0,0,1-1.73,0L429,312.24Z" transform="translate(-333.45 -215.61)"/><path class="cls-2" d="M485.32,312.61a1.65,1.65,0,0,1-.26,1l-3.54,5.47v7.41H493.3V296.86a1.65,1.65,0,1,1,3.31,0v11.9l5,22.71,4.31-1.18-8.59-49.81h-7.23l-5.84,9.73Z" transform="translate(-333.45 -215.61)"/><path class="cls-2" d="M436.6,312.61a1.65,1.65,0,0,1-.26,1l-3.54,5.47v7.41h11.79V309h0V297a1.72,1.72,0,0,1,1.38-1.72,1.65,1.65,0,0,1,1.93,1.63v11.9l5,22.71,2.18-.6a1.65,1.65,0,0,1,.88,0l2.16,0.59,4.87-22.9V297a1.72,1.72,0,0,1,1.38-1.72,1.65,1.65,0,0,1,1.93,1.63v29.61h11.92v-7.41l-3.53-5.47a1.65,1.65,0,0,1-.26-1l1.06-22.42-5.83-9.72h-3a5,5,0,0,0-4.88,4.11l-4.62,26.53a1.65,1.65,0,0,1-1.63,1.37h0a1.65,1.65,0,0,1-1.63-1.37l-4.53-26.27a5.26,5.26,0,0,0-5.18-4.36h-2.8l-5.84,9.73Z" transform="translate(-333.45 -215.61)"/><path class="cls-2" d="M425.18,280.48h-0.41l1.07,1.78A8.05,8.05,0,0,1,425.18,280.48Z" transform="translate(-333.45 -215.61)"/><path class="cls-2" d="M431.15,282.46a2.26,2.26,0,0,0,1.38-.51,3.75,3.75,0,0,0,1.1-1.48h-5a3.73,3.73,0,0,0,1.09,1.47A2.27,2.27,0,0,0,431.15,282.46Z" transform="translate(-333.45 -215.61)"/><path class="cls-2" d="M387.68,312.61a1.65,1.65,0,0,1-.26,1l-3.53,5.47v7.41h11.79V309h0V297a1.72,1.72,0,0,1,1.38-1.72,1.65,1.65,0,0,1,1.93,1.63v11.9l5,22.71,2.28-.63a1.65,1.65,0,0,1,.88,0l2.27,0.62,4.87-22.89V297a1.71,1.71,0,0,1,1.38-1.72,1.65,1.65,0,0,1,1.93,1.63v11.88h0v17.72H429.5v-7.41L426,313.59a1.65,1.65,0,0,1-.26-1l1.06-22.41-5.84-9.73H418a5,5,0,0,0-4.94,4.15l-4.71,27.06a1.65,1.65,0,0,1-1.63,1.37h0a1.65,1.65,0,0,1-1.63-1.37l-4.65-26.92a5.17,5.17,0,0,0-5.09-4.29h-2.87l-5.83,9.72Z" transform="translate(-333.45 -215.61)"/><path class="cls-2" d="M437.52,280.48h-0.41a8,8,0,0,1-.67,1.8Z" transform="translate(-333.45 -215.61)"/><path class="cls-2" d="M486.23,280.48h-0.41a8,8,0,0,1-.72,1.87Z" transform="translate(-333.45 -215.61)"/><path class="cls-2" d="M455.28,242.76c4,0,7.86-6,7.86-12.4,0-.2,0-0.4,0-0.6L451.32,227l-3.82,4.85C448.06,237.76,451.59,242.76,455.28,242.76Z" transform="translate(-333.45 -215.61)"/><path class="cls-2" d="M479.86,329.78H466.64L466,381h8.16l3.36-38.79a1.65,1.65,0,0,1,1.65-1.51h1.59a1.65,1.65,0,0,1,1.65,1.52L485.51,381h8.15l-0.44-51.23H479.86Z" transform="translate(-333.45 -215.61)"/><polygon class="cls-2" points="144 165.4 148.75 165.4 146.46 137.08 144 165.4"/><path class="cls-2" d="M382.22,270.77c4,0,7.86-6,7.86-12.4,0-.2,0-0.4,0-0.6l-11.79-2.72-3.82,4.86C375,265.77,378.53,270.77,382.22,270.77Z" transform="translate(-333.45 -215.61)"/><path class="cls-2" d="M463,328.13v-3.67l-2,9.42a1.65,1.65,0,0,1-2.06,1.25l-3.41-.94-3.42.94a1.63,1.63,0,0,1-.44.06,1.65,1.65,0,0,1-1.61-1.3l-2.14-9.72v4a1.64,1.64,0,0,1-.09.53L448.26,381h14.41l0.68-51.87A1.64,1.64,0,0,1,463,328.13Zm-6,37.2a1.65,1.65,0,0,1-3.31,0v-3.86a1.65,1.65,0,1,1,3.31,0v3.86Zm0-13.83a1.65,1.65,0,0,1-3.31,0v-3.87a1.65,1.65,0,0,1,3.31,0v3.87Z" transform="translate(-333.45 -215.61)"/><path class="cls-2" d="M378,251.6l11.46,2.64c-1.16-3.43-3.82-5.54-7.22-5.54a7.41,7.41,0,0,0-6.9,4.74l1-1.26A1.66,1.66,0,0,1,378,251.6Z" transform="translate(-333.45 -215.61)"/><path class="cls-2" d="M431.13,270.77c4,0,7.87-6,7.87-12.4,0-.2,0-0.4,0-0.6l-11.79-2.72-3.82,4.85C423.92,265.77,427.45,270.77,431.13,270.77Z" transform="translate(-333.45 -215.61)"/><path class="cls-2" d="M406.82,242.76c4,0,7.87-6,7.87-12.4,0-.2,0-0.4,0-0.6L402.86,227,399,231.89C399.6,237.76,403.13,242.76,406.82,242.76Z" transform="translate(-333.45 -215.61)"/><path class="cls-2" d="M426.9,251.6l11.46,2.64c-1.17-3.43-3.83-5.54-7.22-5.54a7.41,7.41,0,0,0-6.89,4.73l1-1.25A1.65,1.65,0,0,1,426.9,251.6Z" transform="translate(-333.45 -215.61)"/><polygon class="cls-2" points="95.29 165.4 100.03 165.4 97.75 137.08 95.29 165.4"/><path class="cls-2" d="M431.15,329.78H417.93L417.26,381h8.16l3.36-38.79a1.65,1.65,0,0,1,1.65-1.51H432a1.65,1.65,0,0,1,1.65,1.52L436.8,381h8.15l-0.44-51.23H431.15Z" transform="translate(-333.45 -215.61)"/><path class="cls-2" d="M387.12,282.94a7.06,7.06,0,0,1-.79,1v0.3Z" transform="translate(-333.45 -215.61)"/><path class="cls-2" d="M475.61,251.6l11.46,2.64c-1.16-3.43-3.83-5.54-7.22-5.54a7.41,7.41,0,0,0-6.89,4.73l1-1.25A1.65,1.65,0,0,1,475.61,251.6Z" transform="translate(-333.45 -215.61)"/><path class="cls-2" d="M479.84,270.77c4,0,7.87-6,7.87-12.4,0-.2,0-0.4,0-0.6l-11.79-2.72-3.82,4.85C472.63,265.77,476.16,270.77,479.84,270.77Z" transform="translate(-333.45 -215.61)"/><path class="cls-2" d="M414.27,328.13v-3.67l-2,9.41a1.65,1.65,0,0,1-1.62,1.31,1.63,1.63,0,0,1-.44-0.06l-3.52-1-3.52,1a1.65,1.65,0,0,1-2.05-1.24l-2.13-9.7v3.95a1.64,1.64,0,0,1-.09.53L399.34,381h14.61l0.68-51.87A1.64,1.64,0,0,1,414.27,328.13Z" transform="translate(-333.45 -215.61)"/><path class="cls-2" d="M377.34,282.94l0.78,1.3v-0.3A7.07,7.07,0,0,1,377.34,282.94Z" transform="translate(-333.45 -215.61)"/><path class="cls-3" d="M451,223.58l11.46,2.64c-1.16-3.43-3.82-5.55-7.22-5.55a7.41,7.41,0,0,0-6.9,4.75l1-1.25A1.65,1.65,0,0,1,451,223.58Z" transform="translate(-333.45 -215.61)"/><path class="cls-3" d="M402.58,223.58L414,226.23c-1.16-3.43-3.83-5.55-7.22-5.55a7.41,7.41,0,0,0-6.9,4.75l1-1.25A1.65,1.65,0,0,1,402.58,223.58Z" transform="translate(-333.45 -215.61)"/><path class="cls-4" d="M382.24,329.78H369L368.34,381h8.16l3.36-38.79a1.65,1.65,0,0,1,1.65-1.51h1.6a1.65,1.65,0,0,1,1.65,1.52L387.88,381H396l-0.44-51.23H382.24Z" transform="translate(-333.45 -215.61)"/><path class="cls-5" d="M429.5,328.13v-1.65H417.58V308.76a1.66,1.66,0,0,1,0,.33l-3.27,15.37v3.67a1.64,1.64,0,0,0,.36,1v-1a1.65,1.65,0,0,1,1.65-1.63h0a1.65,1.65,0,0,1,1.63,1.67l0,1.63h13.22A1.65,1.65,0,0,1,429.5,328.13Z" transform="translate(-333.45 -215.61)"/><path class="cls-5" d="M444.59,309v17.51H432.8v1.65a1.65,1.65,0,0,1-1.65,1.65H444.5v-1.64a1.65,1.65,0,0,1,1.64-1.67h0a1.65,1.65,0,0,1,1.65,1.64v0.54a1.64,1.64,0,0,0,.09-0.53v-4l-3.27-14.86A1.66,1.66,0,0,1,444.59,309Z" transform="translate(-333.45 -215.61)"/><path class="cls-5" d="M445.89,307.32a1.65,1.65,0,0,1,2,1.26l0,0.18v-11.9a1.65,1.65,0,0,0-3.31,0V309A1.65,1.65,0,0,1,445.89,307.32Z" transform="translate(-333.45 -215.61)"/><path class="cls-5" d="M416.27,307.12a1.65,1.65,0,0,1,1.31,1.62V296.86a1.65,1.65,0,1,0-3.31,0v11.71l0-.17A1.65,1.65,0,0,1,416.27,307.12Z" transform="translate(-333.45 -215.61)"/><path class="cls-5" d="M432,340.71h-1.59a1.65,1.65,0,0,0-1.65,1.51L425.42,381h3.32l2.46-28.32L433.48,381h3.32l-3.13-38.78A1.65,1.65,0,0,0,432,340.71Z" transform="translate(-333.45 -215.61)"/><path class="cls-5" d="M417.95,328.15a1.65,1.65,0,0,0-1.63-1.67h0a1.65,1.65,0,0,0-1.65,1.63v1L413.95,381h3.31l0.67-51.23Z" transform="translate(-333.45 -215.61)"/><path class="cls-5" d="M447.8,328.11a1.65,1.65,0,0,0-1.65-1.64h0a1.65,1.65,0,0,0-1.64,1.67v1.64L444.95,381h3.31l-0.45-52.35v-0.54Z" transform="translate(-333.45 -215.61)"/><path class="cls-5" d="M442.15,256.81a1.66,1.66,0,0,1-2,1.24l-1.2-.28c0,0.2,0,.4,0,0.6,0,6.37-3.82,12.4-7.87,12.4-3.68,0-7.21-5-7.78-10.87l-0.41.52-0.16.17a1.65,1.65,0,0,1-2.79-1.12v0c0.41,7,4.78,14.58,11.13,14.58,6.59,0,11.18-8.28,11.18-15.71a18.06,18.06,0,0,0-.13-2.13v-0.07A1.65,1.65,0,0,1,442.15,256.81Z" transform="translate(-333.45 -215.61)"/><path class="cls-5" d="M420.39,258.33l3.85-4.89a7.41,7.41,0,0,1,6.89-4.73c3.4,0,6.06,2.11,7.22,5.54l2.55,0.59a1.65,1.65,0,0,1,1.25,1.31c-0.82-6.43-5.24-10.75-11-10.75-6.47,0-11.17,5.46-11.17,13,0,0.35,0,.7,0,1A1.63,1.63,0,0,1,420.39,258.33Z" transform="translate(-333.45 -215.61)"/><path class="cls-5" d="M440.91,254.83l-2.55-.59L426.9,251.6a1.65,1.65,0,0,0-1.67.59l-1,1.25-3.85,4.89a1.63,1.63,0,0,0-.4,1.08s0,0,0,.08a1.65,1.65,0,0,0,2.79,1.12l0.16-.17,0.41-.52,3.82-4.85L439,257.78l1.2,0.28a1.65,1.65,0,0,0,2-1.88v0A1.65,1.65,0,0,0,440.91,254.83Z" transform="translate(-333.45 -215.61)"/><path class="cls-5" d="M426.31,283a6.86,6.86,0,0,0,.75.92l0-.77a1.65,1.65,0,1,1,3.3.16l-0.11,2.36a5.11,5.11,0,0,0,1.73,0l-0.11-2.36a1.65,1.65,0,1,1,3.3-.16l0,0.77A6.9,6.9,0,0,0,436,283l0.45-.75a8,8,0,0,0,.67-1.8h-3.48a3.75,3.75,0,0,1-1.1,1.48,2.15,2.15,0,0,1-2.78,0,3.73,3.73,0,0,1-1.09-1.47h-3.48a8.05,8.05,0,0,0,.66,1.78Z" transform="translate(-333.45 -215.61)"/><path class="cls-5" d="M431.15,316.92a1.65,1.65,0,0,1,1.65,1.65v0.49l3.54-5.47a1.65,1.65,0,0,0,.26-1l-1.06-22.41-0.25.42a1.65,1.65,0,0,1-2.83-1.7l2.81-4.68V284l0-.77a1.65,1.65,0,1,0-3.3.16L432,285.7l1.26,26.54-2.13,3.29L429,312.24l1.26-26.54,0.11-2.36a1.65,1.65,0,1,0-3.3-.16l0,0.77v0.3l2.81,4.68a1.65,1.65,0,0,1-2.83,1.7l-0.25-.42-1.06,22.41a1.65,1.65,0,0,0,.26,1l3.54,5.47v-0.49A1.65,1.65,0,0,1,431.15,316.92Z" transform="translate(-333.45 -215.61)"/><path class="cls-5" d="M436,283l-0.74,1.23-2.81,4.68a1.65,1.65,0,0,0,2.83,1.7l0.25-.42,5.84-9.73h-3.86l-1.08,1.8Z" transform="translate(-333.45 -215.61)"/><path class="cls-5" d="M427,290.63a1.65,1.65,0,0,0,2.83-1.7L427,284.25,426.31,283l-0.47-.78-1.07-1.78h-3.86l5.84,9.73Z" transform="translate(-333.45 -215.61)"/><path class="cls-5" d="M432.8,328.13v-9.56a1.65,1.65,0,1,0-3.31,0v9.56A1.65,1.65,0,0,0,432.8,328.13Z" transform="translate(-333.45 -215.61)"/><path class="cls-5" d="M478.21,328.13v-1.65H466.29V308.75a1.66,1.66,0,0,1,0,.33L463,324.45v3.67a1.64,1.64,0,0,0,.36,1v-1a1.65,1.65,0,0,1,1.65-1.63h0a1.65,1.65,0,0,1,1.63,1.67l0,1.63h13.22A1.65,1.65,0,0,1,478.21,328.13Z" transform="translate(-333.45 -215.61)"/><path class="cls-5" d="M494.6,307.32a1.65,1.65,0,0,1,2,1.26l0,0.18v-11.9a1.65,1.65,0,1,0-3.31,0v29.61H481.51v1.65a1.65,1.65,0,0,1-1.65,1.65h13.36v-1.64a1.65,1.65,0,0,1,1.64-1.67h0a1.65,1.65,0,0,1,1.66,1.64v0.54a1.64,1.64,0,0,0,.09-0.53v-4l-3.27-14.86A1.65,1.65,0,0,1,494.6,307.32Z" transform="translate(-333.45 -215.61)"/><path class="cls-5" d="M465,307.12a1.65,1.65,0,0,1,1.31,1.63V296.86a1.65,1.65,0,1,0-3.31,0v11.7l0-.17A1.65,1.65,0,0,1,465,307.12Z" transform="translate(-333.45 -215.61)"/><path class="cls-5" d="M480.73,340.71h-1.59a1.65,1.65,0,0,0-1.65,1.51L474.13,381h3.32l2.46-28.32L482.19,381h3.32l-3.13-38.78A1.65,1.65,0,0,0,480.73,340.71Z" transform="translate(-333.45 -215.61)"/><path class="cls-5" d="M494.85,326.47h0a1.65,1.65,0,0,0-1.64,1.67v1.64L493.66,381H497l-0.45-52.35v-0.54A1.65,1.65,0,0,0,494.85,326.47Z" transform="translate(-333.45 -215.61)"/><path class="cls-5" d="M466.66,328.15a1.65,1.65,0,0,0-1.63-1.67h0a1.65,1.65,0,0,0-1.65,1.63v1L462.66,381H466l0.67-51.23Z" transform="translate(-333.45 -215.61)"/><path class="cls-5" d="M466.29,308.75a1.65,1.65,0,0,0-3.27-.35l0,0.17-4.87,22.9-2.16-.59a1.65,1.65,0,0,0-.88,0l-2.18.6-5-22.71,0-.18a1.65,1.65,0,0,0-3.27.38h0a1.66,1.66,0,0,0,0,.33l3.27,14.86,2.14,9.72a1.65,1.65,0,0,0,1.61,1.3,1.63,1.63,0,0,0,.44-0.06l3.42-.94,3.41,0.94a1.65,1.65,0,0,0,2.06-1.25l2-9.42,3.27-15.37A1.66,1.66,0,0,0,466.29,308.75Z" transform="translate(-333.45 -215.61)"/><path class="cls-5" d="M469.11,258.33l3.85-4.89a7.41,7.41,0,0,1,6.89-4.73c3.4,0,6.06,2.11,7.22,5.54l2.55,0.59a1.65,1.65,0,0,1,1.25,1.32c-0.82-6.43-5.24-10.75-11-10.75-6.47,0-11.17,5.46-11.17,13,0,0.35,0,.7,0,1A1.63,1.63,0,0,1,469.11,258.33Z" transform="translate(-333.45 -215.61)"/><path class="cls-5" d="M490.86,256.81a1.66,1.66,0,0,1-2,1.24l-1.2-.28c0,0.2,0,.4,0,0.6,0,6.37-3.82,12.4-7.87,12.4-3.68,0-7.21-5-7.77-10.87l-0.41.52-0.16.17a1.65,1.65,0,0,1-2.79-1.12v0c0.41,7,4.78,14.58,11.13,14.58,6.59,0,11.18-8.28,11.18-15.71a17.9,17.9,0,0,0-.13-2.13v-0.07A1.64,1.64,0,0,1,490.86,256.81Z" transform="translate(-333.45 -215.61)"/><path class="cls-5" d="M489.62,254.83l-2.55-.59-11.46-2.64a1.65,1.65,0,0,0-1.67.59l-1,1.25-3.85,4.89a1.63,1.63,0,0,0-.39,1.08s0,0.05,0,.08a1.65,1.65,0,0,0,2.79,1.12l0.16-.17,0.41-.52,3.82-4.85,11.79,2.72,1.2,0.28a1.65,1.65,0,0,0,2-1.88v0A1.65,1.65,0,0,0,489.62,254.83Z" transform="translate(-333.45 -215.61)"/><path class="cls-5" d="M475.05,283.07a6.93,6.93,0,0,0,.72.88l0-.77a1.65,1.65,0,1,1,3.3.16L479,285.7a5.1,5.1,0,0,0,1.73,0l-0.11-2.36a1.65,1.65,0,1,1,3.3-.16l0,0.77a7,7,0,0,0,.77-1l0.38-.64a8,8,0,0,0,.72-1.87h-3.49a3.79,3.79,0,0,1-1.09,1.48,2.15,2.15,0,0,1-2.77,0,3.78,3.78,0,0,1-1.09-1.47H473.9a8.1,8.1,0,0,0,.59,1.66Z" transform="translate(-333.45 -215.61)"/><path class="cls-5" d="M479.86,316.92a1.65,1.65,0,0,1,1.65,1.65v0.49l3.54-5.47a1.65,1.65,0,0,0,.26-1l-1.06-22.41-0.25.42a1.65,1.65,0,0,1-2.84-1.7l2.81-4.68v-0.3l0-.77a1.65,1.65,0,1,0-3.3.16l0.11,2.36L482,312.24l-2.12,3.28-2.12-3.28,1.06-22.36a1.65,1.65,0,0,1-3.07.75l-0.26-.43-1.06,22.42a1.65,1.65,0,0,0,.26,1l3.53,5.47v-0.49A1.65,1.65,0,0,1,479.86,316.92Z" transform="translate(-333.45 -215.61)"/><path class="cls-5" d="M479.11,283.33a1.65,1.65,0,1,0-3.3-.16l0,0.77v0.29l2.81,4.69a1.64,1.64,0,0,1,.23.92l0.2-4.15Z" transform="translate(-333.45 -215.61)"/><path class="cls-5" d="M484.72,283L484,284.25l-2.81,4.68a1.65,1.65,0,0,0,2.84,1.7l0.25-.42,5.84-9.73h-3.86l-1.12,1.87Z" transform="translate(-333.45 -215.61)"/><path class="cls-5" d="M475.73,290.63a1.65,1.65,0,0,0,3.07-.75v0a1.64,1.64,0,0,0-.23-0.92l-2.81-4.69-0.7-1.17-0.56-.93-1-1.66h-3.86l5.83,9.72Z" transform="translate(-333.45 -215.61)"/><path class="cls-5" d="M481.51,318.57a1.65,1.65,0,1,0-3.31,0v9.56a1.65,1.65,0,1,0,3.31,0v-9.56Z" transform="translate(-333.45 -215.61)"/><path class="cls-5" d="M367.38,326.47h0a1.65,1.65,0,0,1,1.63,1.67l0,1.63h13.23a1.65,1.65,0,0,1-1.65-1.65v-1.65H368.66V308.76a1.66,1.66,0,0,1,0,.33l-3.27,15.39v3.65a1.64,1.64,0,0,0,.36,1v-1A1.65,1.65,0,0,1,367.38,326.47Z" transform="translate(-333.45 -215.61)"/><path class="cls-5" d="M397,307.32a1.66,1.66,0,0,1,2,1.26l0,0.17v-11.9a1.65,1.65,0,0,0-3.31,0V309A1.65,1.65,0,0,1,397,307.32Z" transform="translate(-333.45 -215.61)"/><path class="cls-5" d="M367,295.21a1.65,1.65,0,0,0-1.65,1.65v11.7l0-.17a1.65,1.65,0,0,1,3.27.35V296.86A1.65,1.65,0,0,0,367,295.21Z" transform="translate(-333.45 -215.61)"/><path class="cls-5" d="M395.58,328.14a1.65,1.65,0,0,1,1.64-1.67h0a1.65,1.65,0,0,1,1.65,1.64v0.54a1.64,1.64,0,0,0,.09-0.53v-3.95l-3.27-14.89a1.66,1.66,0,0,1,0-.33v17.51H383.89v1.65a1.65,1.65,0,0,1-1.65,1.65h13.36v-1.64Z" transform="translate(-333.45 -215.61)"/><path class="cls-5" d="M368.34,381L369,329.78l0-1.63a1.65,1.65,0,0,0-1.63-1.67h0a1.65,1.65,0,0,0-1.65,1.63v1L365,381h3.31Z" transform="translate(-333.45 -215.61)"/><path class="cls-5" d="M383.11,340.71h-1.6a1.65,1.65,0,0,0-1.65,1.51L376.5,381h3.32l2.46-28.36L384.56,381h3.32l-3.13-38.78A1.65,1.65,0,0,0,383.11,340.71Z" transform="translate(-333.45 -215.61)"/><path class="cls-5" d="M398.89,328.11a1.65,1.65,0,0,0-1.65-1.64h0a1.65,1.65,0,0,0-1.64,1.67v1.64L396,381h3.31l-0.45-52.35v-0.54Z" transform="translate(-333.45 -215.61)"/><path class="cls-5" d="M417.58,308.76h0a1.65,1.65,0,0,0-3.27-.35l0,0.17-4.87,22.89-2.27-.62a1.65,1.65,0,0,0-.88,0l-2.28.63-5-22.71,0-.17a1.65,1.65,0,0,0-3.27.37h0a1.66,1.66,0,0,0,0,.33L399,324.18l2.13,9.7a1.65,1.65,0,0,0,2.05,1.24l3.52-1,3.52,1a1.63,1.63,0,0,0,.44.06,1.65,1.65,0,0,0,1.62-1.31l2-9.41,3.27-15.37A1.66,1.66,0,0,0,417.58,308.76Z" transform="translate(-333.45 -215.61)"/><path class="cls-5" d="M368.66,308.76s0,0,0,0a1.65,1.65,0,0,0-1.51-1.65,1.73,1.73,0,0,0-1.78,1.41v0.07l-4.87,22.9-4.3-1.18L364,285.15a5.64,5.64,0,0,1,5.56-4.68H372l-0.43-.72a1.72,1.72,0,0,1,.29-2.19,1.65,1.65,0,0,1,2.49.4l1.5,2.5h0.41A8.49,8.49,0,0,1,376,279a1.7,1.7,0,0,1,1.3-1.8,1.66,1.66,0,0,1,2,1.52,5.08,5.08,0,0,0,.42,1.75h5a5.1,5.1,0,0,0,.42-1.75,1.66,1.66,0,0,1,2.32-1.42,1.7,1.7,0,0,1,1,1.69,8.5,8.5,0,0,1-.24,1.47h0.41l1.46-2.43a1.71,1.71,0,0,1,2.06-.77,1.65,1.65,0,0,1,.82,2.39l-0.48.8h2.87a5.17,5.17,0,0,1,5.09,4.29l4.65,26.92a1.65,1.65,0,0,0,1.63,1.37h0a1.65,1.65,0,0,0,1.63-1.37L413,284.63a5,5,0,0,1,4.94-4.15h26.2a5.26,5.26,0,0,1,5.18,4.36l4.53,26.27a1.65,1.65,0,0,0,1.63,1.37h0a1.65,1.65,0,0,0,1.63-1.37l4.62-26.53a5,5,0,0,1,4.88-4.11h30.67l8.59,49.81-4.31,1.18-5-22.71,0-.09a1.71,1.71,0,0,0-1.71-1.38,1.65,1.65,0,0,0-1.54,2l3.27,14.86,2.14,9.73a1.65,1.65,0,0,0,2.05,1.24l7.43-2a1.65,1.65,0,0,0,1.19-1.88l-9.08-52.66a1.65,1.65,0,0,0-1.63-1.37H465.26a6.61,6.61,0,0,0-6.51,5.48l-3.22,18.5-3.15-18.24a6.91,6.91,0,0,0-6.81-5.74h-29a6.66,6.66,0,0,0-6.57,5.52l-3.31,19-3.26-18.9a6.82,6.82,0,0,0-6.72-5.66H368.2a7.3,7.3,0,0,0-7.19,6l-8.35,48a1.65,1.65,0,0,0,1.19,1.88l7.44,2a1.65,1.65,0,0,0,2.05-1.25l2-9.39,3.27-15.39A1.66,1.66,0,0,0,368.66,308.76Z" transform="translate(-333.45 -215.61)"/><path class="cls-5" d="M371.09,259.59a1.65,1.65,0,0,1,.34-1.21l3.89-4.94a7.41,7.41,0,0,1,6.9-4.74c3.4,0,6.06,2.11,7.22,5.54l2.55,0.59a1.65,1.65,0,0,1,1.25,1.31c-0.81-6.43-5.23-10.75-11-10.75-6.48,0-11.18,5.46-11.18,13,0,0.39,0,.76,0,1.13C371.08,259.53,371.09,259.56,371.09,259.59Z" transform="translate(-333.45 -215.61)"/><path class="cls-5" d="M393.23,256.81a1.66,1.66,0,0,1-2,1.24l-1.2-.28c0,0.2,0,.4,0,0.6,0,6.37-3.82,12.4-7.86,12.4-3.69,0-7.22-5-7.78-10.86l-0.41.52a1.65,1.65,0,0,1-2.94-.82c0.45,7,4.81,14.47,11.13,14.47,6.58,0,11.17-8.28,11.17-15.71a18,18,0,0,0-.13-2.13v-0.07A1.64,1.64,0,0,1,393.23,256.81Z" transform="translate(-333.45 -215.61)"/><path class="cls-5" d="M392,254.83l-2.55-.59L378,251.6a1.66,1.66,0,0,0-1.67.59l-1,1.26-3.89,4.94a1.65,1.65,0,0,0-.34,1.21v0a1.65,1.65,0,0,0,2.94.82l0.41-.52,3.82-4.86L390,257.78l1.2,0.28a1.65,1.65,0,0,0,2-1.88v0A1.65,1.65,0,0,0,392,254.83Z" transform="translate(-333.45 -215.61)"/><path class="cls-5" d="M377.34,282.94a7.07,7.07,0,0,0,.79,1l0-.76a1.65,1.65,0,1,1,3.3.16l-0.11,2.36a5.11,5.11,0,0,0,1.74,0L383,283.33a1.65,1.65,0,0,1,3.3-.16l0,0.76a7.06,7.06,0,0,0,.79-1l0.26-.44a8.1,8.1,0,0,0,.81-2,8.46,8.46,0,0,0,.24-1.56,1.65,1.65,0,1,0-3.3-.19,5.1,5.1,0,0,1-.42,1.75,3.79,3.79,0,0,1-1.08,1.47,2.17,2.17,0,0,1-2.78,0,3.81,3.81,0,0,1-1.09-1.48,5.08,5.08,0,0,1-.42-1.75,1.65,1.65,0,0,0-3.3.19,8.45,8.45,0,0,0,.24,1.56,8.09,8.09,0,0,0,.81,2Z" transform="translate(-333.45 -215.61)"/><path class="cls-5" d="M387.68,312.61l-1.06-22.42-0.26.43a1.65,1.65,0,0,1-3.07-.75l1.06,22.36-2.12,3.28-2.12-3.28,1.05-22.36a1.65,1.65,0,0,1-3.07.75l-0.26-.43-1.06,22.42a1.65,1.65,0,0,0,.26,1l3.54,5.47v-0.49a1.65,1.65,0,1,1,3.31,0v0.49l3.53-5.47A1.66,1.66,0,0,0,387.68,312.61Z" transform="translate(-333.45 -215.61)"/><path class="cls-5" d="M383.53,288.93l2.81-4.69v-0.3l0-.76a1.65,1.65,0,0,0-3.3.16l0.11,2.36,0.2,4.15A1.64,1.64,0,0,1,383.53,288.93Z" transform="translate(-333.45 -215.61)"/><path class="cls-5" d="M381.48,283.33a1.65,1.65,0,1,0-3.3-.16l0,0.76v0.3l2.81,4.69a1.64,1.64,0,0,1,.23.92l0.2-4.15Z" transform="translate(-333.45 -215.61)"/><path class="cls-5" d="M387.12,282.94l-0.78,1.29-2.81,4.69a1.64,1.64,0,0,0-.23.92v0a1.65,1.65,0,0,0,3.07.75l0.26-.43,5.83-9.72,0.48-.8a1.65,1.65,0,0,0-2.83-1.7l-1.5,2.5-1.21,2Z" transform="translate(-333.45 -215.61)"/><path class="cls-5" d="M378.1,290.63a1.65,1.65,0,0,0,3.07-.75v0a1.64,1.64,0,0,0-.23-0.92l-2.81-4.69-0.78-1.3-0.26-.43-1.22-2-1.5-2.5a1.65,1.65,0,0,0-2.84,1.7l0.48,0.8,5.83,9.72Z" transform="translate(-333.45 -215.61)"/><path class="cls-5" d="M383.89,328.13v-9.56a1.65,1.65,0,1,0-3.31,0v9.56A1.65,1.65,0,0,0,383.89,328.13Z" transform="translate(-333.45 -215.61)"/><path class="cls-5" d="M395.69,231.58a1.65,1.65,0,0,1,.34-1.21l3.89-4.94a7.41,7.41,0,0,1,6.9-4.75c3.4,0,6.06,2.11,7.22,5.55l2.55,0.59a1.65,1.65,0,0,1,1.25,1.31c-0.82-6.44-5.24-10.75-11-10.75-6.48,0-11.18,5.46-11.18,13,0,0.38,0,.77,0,1.12C395.68,231.51,395.69,231.54,395.69,231.58Z" transform="translate(-333.45 -215.61)"/><path class="cls-5" d="M417.84,228.8a1.66,1.66,0,0,1-2,1.24l-1.2-.28c0,0.2,0,.4,0,0.6,0,6.37-3.82,12.4-7.87,12.4-3.69,0-7.22-5-7.78-10.87l-0.41.52a1.65,1.65,0,0,1-2.94-.82c0.45,7,4.81,14.48,11.13,14.48,6.59,0,11.18-8.28,11.18-15.71a17.89,17.89,0,0,0-.13-2.13v-0.07A1.64,1.64,0,0,1,417.84,228.8Z" transform="translate(-333.45 -215.61)"/><path class="cls-5" d="M416.6,226.82l-2.55-.59-11.47-2.64a1.65,1.65,0,0,0-1.67.59l-1,1.25L396,230.36a1.65,1.65,0,0,0-.34,1.21h0a1.65,1.65,0,0,0,2.94.82l0.41-.52,3.82-4.85,11.8,2.72,1.2,0.28a1.65,1.65,0,0,0,2-1.88v0A1.65,1.65,0,0,0,416.6,226.82Z" transform="translate(-333.45 -215.61)"/><path class="cls-5" d="M466.29,228.8a1.66,1.66,0,0,1-2,1.24l-1.2-.28c0,0.2,0,.4,0,0.6,0,6.37-3.82,12.4-7.86,12.4-3.69,0-7.22-5-7.78-10.87l-0.41.52a1.65,1.65,0,0,1-2.94-.83c0.45,7,4.81,14.48,11.13,14.48,6.58,0,11.17-8.28,11.17-15.71a17.92,17.92,0,0,0-.13-2.13v-0.07A1.65,1.65,0,0,1,466.29,228.8Z" transform="translate(-333.45 -215.61)"/><path class="cls-5" d="M444.15,231.58a1.65,1.65,0,0,1,.34-1.21l3.89-4.94a7.41,7.41,0,0,1,6.9-4.75c3.4,0,6.06,2.11,7.22,5.55l2.55,0.59a1.65,1.65,0,0,1,1.25,1.32c-0.81-6.44-5.23-10.76-11-10.76-6.48,0-11.18,5.46-11.18,13,0,0.38,0,.77,0,1.12C444.14,231.51,444.14,231.55,444.15,231.58Z" transform="translate(-333.45 -215.61)"/><path class="cls-5" d="M465,226.82l-2.55-.59L451,223.58a1.65,1.65,0,0,0-1.67.59l-1,1.25-3.89,4.94a1.65,1.65,0,0,0-.34,1.21h0a1.65,1.65,0,0,0,2.94.83l0.41-.52,3.82-4.85,11.79,2.72,1.2,0.28a1.65,1.65,0,0,0,2-1.88v0A1.65,1.65,0,0,0,465,226.82Z" transform="translate(-333.45 -215.61)"/><path class="cls-5" d="M455.38,359.81a1.65,1.65,0,0,0-1.65,1.65v3.86a1.65,1.65,0,0,0,3.31,0v-3.86A1.65,1.65,0,0,0,455.38,359.81Z" transform="translate(-333.45 -215.61)"/><path class="cls-5" d="M455.38,346a1.65,1.65,0,0,0-1.65,1.65v3.87a1.65,1.65,0,0,0,3.31,0v-3.87A1.65,1.65,0,0,0,455.38,346Z" transform="translate(-333.45 -215.61)"/></svg>