<svg id="Layer_1" data-name="Layer 1" xmlns="http://www.w3.org/2000/svg" viewBox="0 0 181.2 42.68"><defs><style>.cls-1{fill:#ded9b9;}.cls-2{opacity:0.2;}.cls-3{fill:#c2c571;}.cls-4{fill:#cbcd7e;}.cls-5{fill:#b5bb60;}.cls-6{fill:#adb353;}.cls-7{fill:#babf66;}.cls-8{fill:#a0a949;}.cls-9{fill:#97a03f;}</style></defs><title>feature_bg</title><path class="cls-1" d="M6,3.83L5.78,6.43,7.25,6.59c0.05-.5.11-1,0.14-1.4A1.5,1.5,0,0,1,9.24,3.72c-0.1,1-.18,1.89-0.3,2.84a0.43,0.43,0,0,1-.31.2,3.32,3.32,0,0,1-.58,0C8,7.57,8,7.6,8.71,7.76a10.25,10.25,0,0,0,1.39.17A1.33,1.33,0,0,1,8.59,9.38H5.05l-0.23.7H5.24v1.5a0.36,0.36,0,0,1-.18.28,0.44,0.44,0,0,0-.27.64,3.1,3.1,0,0,0,.79.67A1,1,0,0,0,5.78,13l-0.17-.16-0.35-.22a1.36,1.36,0,0,1,.4-0.25,0.64,0.64,0,0,1,.91.45,1.08,1.08,0,0,0,.62.36,7.85,7.85,0,0,1,1,.3c0.6,0.33,1.17.72,1.75,1.08a4.14,4.14,0,0,1,2,3.63c0.06,5.34,0,10.68,0,16a1.16,1.16,0,0,1,0,.19H5.78V19.84a2.14,2.14,0,0,0-.71-1.71c-1-1-2-2.08-2.92-3.13A0.63,0.63,0,0,1,2,14.57c0.09-.89.2-1.77,0.31-2.66V11.54c0.11-1.22.19-2.44,0.34-3.65a1.61,1.61,0,0,1,1.08-1.4,0.54,0.54,0,0,0,.4-0.59,7.56,7.56,0,0,1,.12-1.16C4.42,4,5,3.73,6,3.83Z" transform="translate(0 -0.02)"/><path class="cls-1" d="M12.3,4.58c-0.13,1.16-.24,2.2-0.35,3.23-0.09.79-.24,1.58-0.28,2.37,0,0.61-.57.34-0.81,0.57a0.66,0.66,0,0,1-.45-0.27,2.15,2.15,0,0,1-.19-1.21A8.61,8.61,0,0,0,10.49,7a13.08,13.08,0,0,1,.23-1.52,0.85,0.85,0,0,1,.94-0.68A2.41,2.41,0,0,0,12.3,4.58Z" transform="translate(0 -0.02)"/><path class="cls-1" d="M15.34,5.54c-0.4,1.73,0,3.59-1,5.22A1.54,1.54,0,0,1,13.46,9c0.11-.72.19-1.44,0.27-2.15a1.44,1.44,0,0,1,1.55-1.33h0.06Z" transform="translate(0 -0.02)"/><path class="cls-1" d="M27.13,15.46l-0.26,2.6,1.47,0.16c0-.5.11-1,0.14-1.4a1.5,1.5,0,0,1,1.85-1.47c-0.1,1-.18,1.89-0.3,2.84a0.43,0.43,0,0,1-.31.2,3.32,3.32,0,0,1-.58,0c-0.08.81-.09,0.84,0.66,1a10.25,10.25,0,0,0,1.39.17,1.33,1.33,0,0,1-1.53,1.51H26.12l-0.23.7h0.42v1.5a0.36,0.36,0,0,1-.18.28,0.44,0.44,0,0,0-.27.64,3.1,3.1,0,0,0,.79.67,1,1,0,0,0,.2-0.16,1.38,1.38,0,0,0-.19-0.21l-0.35-.22A1.36,1.36,0,0,1,26.7,24a0.64,0.64,0,0,1,.91.45,1.08,1.08,0,0,0,.62.36,7.85,7.85,0,0,1,1,.3c0.6,0.33,1.17.72,1.75,1.08a4.14,4.14,0,0,1,2,3.63c0.06,5.34,0,6.74,0,12.06a1.16,1.16,0,0,1,0,.19h-6.1V31.46a2.14,2.14,0,0,0-.71-1.71c-1-1-2-2.08-2.92-3.13a0.63,0.63,0,0,1-.16-0.43c0.09-.89.2-1.77,0.31-2.66V23.16c0.11-1.22.19-2.44,0.34-3.65a1.61,1.61,0,0,1,1.08-1.4,0.54,0.54,0,0,0,.4-0.59,7.56,7.56,0,0,1,.12-1.16C25.51,15.66,26.09,15.36,27.13,15.46Z" transform="translate(0 -0.02)"/><path class="cls-1" d="M33.39,16.21c-0.13,1.16-.24,2.2-0.35,3.23-0.09.79-.24,1.58-0.28,2.37,0,0.61-.57.34-0.81,0.57a0.66,0.66,0,0,1-.45-0.27,2.15,2.15,0,0,1-.19-1.18,8.61,8.61,0,0,0,.27-2.28,13.08,13.08,0,0,1,.23-1.52,0.85,0.85,0,0,1,.94-0.68A2.41,2.41,0,0,0,33.39,16.21Z" transform="translate(0 -0.02)"/><path class="cls-1" d="M36.43,17.17c-0.4,1.73,0,3.59-1,5.22a1.54,1.54,0,0,1-.88-1.75c0.11-.71.11-1.45,0.23-2.17a1.44,1.44,0,0,1,1.56-1.31h0.09Z" transform="translate(0 -0.02)"/><path class="cls-1" d="M171.9,0.12l-0.24,2.6,1.45,0.21c0.05-.5.11-1,0.14-1.4A1.5,1.5,0,0,1,175.1.06c-0.1,1-.18,1.89-0.3,2.84a0.43,0.43,0,0,1-.31.2,3.32,3.32,0,0,1-.58,0c-0.08.81-.09,0.84,0.66,1a10.25,10.25,0,0,0,1.39.17,1.33,1.33,0,0,1-1.51,1.45h-3.54l-0.23.7h0.42v1.5a0.36,0.36,0,0,1-.18.28,0.44,0.44,0,0,0-.27.64,3.1,3.1,0,0,0,.79.67,1,1,0,0,0,.2-0.16l-0.17-.16-0.35-.26a1.36,1.36,0,0,1,.39-0.27,0.64,0.64,0,0,1,.91.45,1.08,1.08,0,0,0,.62.36,7.85,7.85,0,0,1,1,.3c0.6,0.33,1.17.72,1.75,1.08a4.14,4.14,0,0,1,2,3.63c0.06,5.34,0,10.68,0,16a1.16,1.16,0,0,1,0,.19h-6.13V16.12a2.14,2.14,0,0,0-.71-1.71c-1-1-2-2.08-2.92-3.13a0.63,0.63,0,0,1-.16-0.43c0.09-.89.2-1.77,0.31-2.66V7.82c0.11-1.22.19-2.44,0.34-3.65a1.61,1.61,0,0,1,1.08-1.4,0.54,0.54,0,0,0,.4-0.59A7.56,7.56,0,0,1,170.12,1C170.28,0.32,170.86,0,171.9.12Z" transform="translate(0 -0.02)"/><path class="cls-1" d="M178.16,0.87C178,2,177.92,3.07,177.81,4.1c-0.09.79-.24,1.58-0.28,2.37,0,0.61-.57.34-0.81,0.57a0.66,0.66,0,0,1-.45-0.27,2.15,2.15,0,0,1-.19-1.21,8.61,8.61,0,0,0,.27-2.28,13.08,13.08,0,0,1,.23-1.52,0.85,0.85,0,0,1,.94-0.68A2.41,2.41,0,0,0,178.16.87Z" transform="translate(0 -0.02)"/><path class="cls-1" d="M181.2,1.83c-0.4,1.73,0,3.59-1,5.22a1.54,1.54,0,0,1-.88-1.75c0.11-.72.19-1.44,0.27-2.15a1.44,1.44,0,0,1,1.55-1.33h0.06Z" transform="translate(0 -0.02)"/><path class="cls-1" d="M132.71,6.52l0.3,3-1.69.19c-0.06-.57-0.13-1.09-0.16-1.62A1.73,1.73,0,0,0,129,6.39c0.11,1.09.21,2.18,0.34,3.27a0.5,0.5,0,0,0,.35.23,3.82,3.82,0,0,0,.66,0c0.1,0.94.11,1-.76,1.2a11.8,11.8,0,0,1-1.6.2,1.53,1.53,0,0,0,1.75,1.64h4.07l0.27,0.8h-0.49v1.72a0.41,0.41,0,0,0,.21.32,0.51,0.51,0,0,1,.31.74,3.57,3.57,0,0,1-.91.77,1.11,1.11,0,0,1-.23-0.19l0.19-.18,0.41-.25a1.57,1.57,0,0,0-.45-0.31,0.73,0.73,0,0,0-1,.51,1.24,1.24,0,0,1-.71.41,9,9,0,0,0-1.14.35c-0.69.38-1.34,0.83-2,1.24A4.77,4.77,0,0,0,126,23c-0.07,6.14,0,12.29,0,18.44a1.33,1.33,0,0,0,0,.22H133V24.9a2.47,2.47,0,0,1,.82-2c1.15-1.17,2.25-2.39,3.36-3.6a0.73,0.73,0,0,0,.19-0.5c-0.1-1-.23-2-0.35-3.06V15.31c-0.13-1.4-.22-2.81-0.4-4.2a1.86,1.86,0,0,0-1.24-1.62A0.62,0.62,0,0,1,135,8.81a8.71,8.71,0,0,0-.13-1.34C134.57,6.75,133.91,6.41,132.71,6.52Z" transform="translate(0 -0.02)"/><path class="cls-1" d="M125.5,7.38c0.15,1.34.27,2.53,0.41,3.72,0.1,0.91.28,1.82,0.32,2.73,0,0.7.66,0.39,0.94,0.65a0.75,0.75,0,0,0,.52-0.31,2.47,2.47,0,0,0,.22-1.39,9.9,9.9,0,0,1-.31-2.63,15,15,0,0,0-.27-1.75,1,1,0,0,0-1.09-.78A2.78,2.78,0,0,1,125.5,7.38Z" transform="translate(0 -0.02)"/><path class="cls-1" d="M122,8.49c0.46,2,0,4.14,1.2,6a1.78,1.78,0,0,0,1-2c-0.13-.82-0.22-1.65-0.31-2.48a1.66,1.66,0,0,0-1.78-1.53H122Z" transform="translate(0 -0.02)"/><g class="cls-2"><path class="cls-1" d="M44.18,26.37A3,3,0,0,0,44.49,25a3.1,3.1,0,0,0-4.37-2.83,5.17,5.17,0,0,0-10.28-.36,4.06,4.06,0,0,0-6.39,3.22,1.9,1.9,0,0,0-1.17-.4,1.92,1.92,0,0,0-1.91,1.7H44.18Z" transform="translate(0 -0.02)"/><path class="cls-1" d="M70.88,30.69A1.51,1.51,0,0,0,71,30.1a1.53,1.53,0,0,0-1.53-1.53H69.18a2.48,2.48,0,0,0,.08-0.64,2.6,2.6,0,0,0-3.94-2.23,4.74,4.74,0,0,0-9.42.74,3.24,3.24,0,0,0-5.58,2.22,1.53,1.53,0,0,0-2,2H70.88v0Z" transform="translate(0 -0.02)"/><path class="cls-1" d="M144.14,29.81a1.73,1.73,0,0,0-1.6-2.4h-0.33a2.83,2.83,0,0,0,.09-0.72,2.94,2.94,0,0,0-4.45-2.52,5.36,5.36,0,0,0-10.64.83,3.66,3.66,0,0,0-6.31,2.51,1.69,1.69,0,0,0-.67-0.13,1.73,1.73,0,0,0-1.6,2.4h25.51v0Z" transform="translate(0 -0.02)"/><path class="cls-1" d="M146.5,20.27V20.1a2.88,2.88,0,0,1,4.24-2.55,3.95,3.95,0,0,1,7.76,1,3.91,3.91,0,0,1-.37,1.67H146.5v0Z" transform="translate(0 -0.02)"/><path class="cls-1" d="M115.47,23.58V23.36a3.75,3.75,0,0,0-6-3v-0.1a4.53,4.53,0,0,0-9.06,0v0.08a3.36,3.36,0,0,0-1-.17,3.3,3.3,0,0,0-3.3,3.3h0v0.15h19.34Z" transform="translate(0 -0.02)"/><path class="cls-1" d="M16.51,30.16V30a3,3,0,0,0-4.85-2.46V27.44a3.67,3.67,0,0,0-7.34,0v0.07a2.71,2.71,0,0,0-.85-0.14A2.67,2.67,0,0,0,.79,30s0,0,0,0v0.12H16.51Z" transform="translate(0 -0.02)"/><path class="cls-1" d="M180.66,26.41v-0.2a3.49,3.49,0,0,0-5.54-2.84V23.28a4.22,4.22,0,0,0-8.43,0v0.08a3.11,3.11,0,0,0-1-.16,3.07,3.07,0,0,0-3,3.07v0.14h18Z" transform="translate(0 -0.02)"/><path class="cls-1" d="M71.66,25.24V25.07a2.89,2.89,0,0,1,4.24-2.55,3.95,3.95,0,1,1,7.38,2.72H71.66Z" transform="translate(0 -0.02)"/></g><path class="cls-3" d="M98.05,36.05a5,5,0,0,1,2.65.15,6.64,6.64,0,0,1,12.58-2.9c0-.1,0-0.2.07-0.31a3.76,3.76,0,0,1,6.66-.89l0.65-.39,0.19-.11q0.78-.46,1.59-0.91l0.29-.16c0.54-.29,1.09-0.58,1.65-0.86l0.07,0,0.64-.31a66.29,66.29,0,0,0-21.24-3.41,65.44,65.44,0,0,0-24.14,4.49,3.13,3.13,0,0,1,.18.51A85.39,85.39,0,0,1,98.05,36.05Z" transform="translate(0 -0.02)"/><path class="cls-4" d="M129.61,31.78a39.76,39.76,0,0,0-4.26.23c13.14,0.13,25.35,3.23,34.35,8.32A5.4,5.4,0,0,1,165,42.69h2.14a44.59,44.59,0,0,0-11.46-6.33A72.92,72.92,0,0,0,129.61,31.78Z" transform="translate(0 -0.02)"/><path class="cls-4" d="M178.31,41.38c-0.65-.61-1.33-1.23-2.06-1.89-7.79-7-21.92-11.55-36-11.55-1.65,0-3.3.08-4.93,0.23a70,70,0,0,1,23.82,4.29c6.94,2.59,12.76,6.18,16.39,10.11l0.11,0.13h0.94A5.17,5.17,0,0,1,178.31,41.38Z" transform="translate(0 -0.02)"/><path class="cls-4" d="M130.3,30.08c16.17,0.17,30.85,5,39.43,12.61h3.51c-6.68-6.37-21-12.84-38.32-12.84C133.37,29.85,131.83,29.93,130.3,30.08Z" transform="translate(0 -0.02)"/><path class="cls-4" d="M150.89,24.14c-1.85,0-3.7.08-5.53,0.23h0.19c12.79,0,25.36,3.57,33.64,9.57a24.11,24.11,0,0,1,2,1.46v2.14c-0.87-.7-1.85-1.45-2.94-2.24C170.25,29.51,158,26,145.6,26c-1.75,0-3.5.07-5.23,0.22,14.63,0,28.82,4.62,37,12,1,0.93,2,1.8,2.85,2.63a5.12,5.12,0,0,1,1,0V31.6l-0.93-.5A64.51,64.51,0,0,0,150.89,24.14Z" transform="translate(0 -0.02)"/><path class="cls-4" d="M114,36.69v0h0.16l0,0H114Z" transform="translate(0 -0.02)"/><path class="cls-4" d="M128.16,37.55A80,80,0,0,1,148,42.69H148a80.07,80.07,0,0,0-19.88-5.18v0Z" transform="translate(0 -0.02)"/><path class="cls-4" d="M127.86,36.89a78.89,78.89,0,0,1,20.43,5.8h4.31A74.94,74.94,0,0,0,127.22,36,5,5,0,0,1,127.86,36.89Z" transform="translate(0 -0.02)"/><path class="cls-4" d="M150.88,40A49.42,49.42,0,0,1,156,42.55a5.41,5.41,0,0,1,1.56-1.46c-8.85-4.64-20.67-7.4-33.32-7.4a33.17,33.17,0,0,0-3.61.21v0A81.14,81.14,0,0,1,150.88,40Z" transform="translate(0 -0.02)"/><path class="cls-5" d="M124.39,29.68c-0.56.28-1.11,0.57-1.65,0.86l-0.29.16q-0.81.44-1.59,0.91l-0.19.11-0.65.39a3.77,3.77,0,0,1,.65,1.79,33.17,33.17,0,0,1,3.61-.21c12.65,0,24.47,2.75,33.32,7.4,0.13-.08.26-0.16,0.39-0.23a5.37,5.37,0,0,1,1.71-.52c-9-5.09-21.22-8.2-34.35-8.32a39.76,39.76,0,0,1,4.26-.23,72.92,72.92,0,0,1,26,4.58,44.59,44.59,0,0,1,11.46,6.33h2.62C161.15,35,146.47,30.25,130.3,30.08c1.53-.15,3.07-0.23,4.62-0.23,17.34,0,31.64,6.47,38.32,12.84h2.4l-0.11-.12c-3.63-3.93-9.45-7.52-16.39-10.11a70,70,0,0,0-23.82-4.29c1.63-.15,3.28-0.23,4.93-0.23,14.08,0,28.21,4.53,36,11.55,0.73,0.66,1.41,1.29,2.06,1.89a5.11,5.11,0,0,1,1.91-.49c-0.87-.82-1.81-1.7-2.85-2.63-8.18-7.38-22.37-12-37-12,1.73-.15,3.48-0.22,5.23-0.22,12.45,0,24.65,3.46,32.65,9.25,1.09,0.79,2.07,1.54,2.94,2.24V35.4a24.11,24.11,0,0,0-2-1.46c-8.28-6-20.85-9.57-33.64-9.57h-0.19c1.83-.15,3.68-0.23,5.53-0.23a64.51,64.51,0,0,1,29.38,7l0.93,0.5V29.67a64.17,64.17,0,0,0-28.39-6.37c-1.51,0-3,.06-4.47.16l-0.49,0-1.93.17-0.58.06c-0.64.07-1.28,0.14-1.91,0.23L143,24q-3.27.47-6.37,1.23l-0.07,0c-0.61.15-1.22,0.32-1.83,0.48l-0.51.14-1.71.52-0.52.17c-0.58.19-1.15,0.38-1.71,0.59l-0.25.1q-2.57.95-5,2.1l-0.64.31Z" transform="translate(0 -0.02)"/><path class="cls-5" d="M150.88,40a81.14,81.14,0,0,0-30.2-6.06,3.75,3.75,0,0,1-.14,1.33,5,5,0,0,1,6.68.73,74.94,74.94,0,0,1,25.39,6.69H156l0.09-.14A49.42,49.42,0,0,0,150.88,40Z" transform="translate(0 -0.02)"/><path class="cls-5" d="M114,36.57s0,0.08,0,.12h0.12Z" transform="translate(0 -0.02)"/><path class="cls-5" d="M128.15,37.52A80.07,80.07,0,0,1,148,42.69h0.26a78.89,78.89,0,0,0-20.43-5.8A5,5,0,0,1,128.15,37.52Z" transform="translate(0 -0.02)"/><path class="cls-6" d="M74.16,30.12q2.92,0.33,5.74.81A3.12,3.12,0,0,0,75,29.16a2.34,2.34,0,0,0-4.45-1.41c0,0.06,0,.12,0,0.18a4.1,4.1,0,0,0-7.79,1.53q4.12,0,8.1.34Q72.52,29.94,74.16,30.12Z" transform="translate(0 -0.02)"/><path class="cls-7" d="M38,42.69h0.09c-1.15-.83-2.36-1.58-3.59-2.29C35.7,41.13,36.85,41.9,38,42.69Z" transform="translate(0 -0.02)"/><path class="cls-7" d="M28.56,36.41a2.17,2.17,0,0,1,1.22-.22h0a2.19,2.19,0,0,1,1.93,2.42,2.42,2.42,0,0,1-.06.24q1.44,0.75,2.79,1.55L33.81,40a5.15,5.15,0,0,1,9.88,2.67H82.93a74.58,74.58,0,0,1,11.5-3.64,5,5,0,0,1,3.62-3A85.39,85.39,0,0,0,79.9,30.93q-2.81-.48-5.74-0.81-1.65-.18-3.32-0.32-4-.32-8.1-0.34H62.32a96.09,96.09,0,0,0-33.86,5.83A2.8,2.8,0,0,1,28.56,36.41Z" transform="translate(0 -0.02)"/><path class="cls-8" d="M41.77,37.85a5.16,5.16,0,0,0-8,2.17l0.65,0.38h0c1.23,0.71,2.44,1.47,3.59,2.29h5.63A5.14,5.14,0,0,0,41.77,37.85Z" transform="translate(0 -0.02)"/><path class="cls-8" d="M15,32.68a75.86,75.86,0,0,1,16.71,6.17,2.42,2.42,0,0,0,.06-0.24,2.19,2.19,0,0,0-1.93-2.42h0a2.17,2.17,0,0,0-1.22.22,2.81,2.81,0,0,0-4.2-2.74A5.42,5.42,0,0,0,14,31a2.63,2.63,0,0,0-4.92.4q3,0.53,5.78,1.23H15Z" transform="translate(0 -0.02)"/><path class="cls-6" d="M34.46,40.4h0q-1.35-.8-2.79-1.55A75.86,75.86,0,0,0,15,32.68H14.9q-2.82-.7-5.78-1.23Q4.7,30.64,0,30.22V42.69H38C36.85,41.9,35.7,41.13,34.46,40.4Z" transform="translate(0 -0.02)"/><path class="cls-8" d="M114,36.74v0s0-.08,0-0.12l0.11,0.12,0,0h1.35c1.23,0,2.45,0,3.67.07,3.08,0.11,6.1.37,9,.76v0a5,5,0,0,0-7.62-2.25,3.75,3.75,0,0,0,.14-1.33v0a3.77,3.77,0,0,0-7.31-.9c0,0.1,0,.2-0.07.31a6.63,6.63,0,0,0-12.58,2.9,5.06,5.06,0,0,0-6.28,2.85q4-.93,8.31-1.51A96.54,96.54,0,0,1,114,36.74Z" transform="translate(0 -0.02)"/><path class="cls-6" d="M119.14,36.79c-1.21,0-2.43-.07-3.67-0.07H114a96.54,96.54,0,0,0-11.22.81q-4.3.57-8.31,1.51a74.58,74.58,0,0,0-11.5,3.64h65a80,80,0,0,0-19.8-5.15C125.24,37.16,122.22,36.91,119.14,36.79Z" transform="translate(0 -0.02)"/><path class="cls-9" d="M159.7,40.33a5.37,5.37,0,0,0-1.71.52c-0.14.07-.26,0.15-0.39,0.23A5.41,5.41,0,0,0,156,42.55l-0.09.14h9A5.4,5.4,0,0,0,159.7,40.33Z" transform="translate(0 -0.02)"/><path class="cls-9" d="M180.22,40.9a5.11,5.11,0,0,0-1.91.49,5.17,5.17,0,0,0-1.73,1.31h4.62V40.93A5.12,5.12,0,0,0,180.22,40.9Z" transform="translate(0 -0.02)"/></svg>