<svg id="Layer_4" data-name="Layer 4" xmlns="http://www.w3.org/2000/svg" viewBox="0 0 105.54 85.32"><defs><style>.cls-1{fill:#fff;}.cls-2{fill:#aea859;}.cls-3{fill:#dad745;}</style></defs><title>gift</title><path class="cls-1" d="M587.4,1044.94a6.35,6.35,0,0,0-8.16-6.42,10.92,10.92,0,0,0-8,10h0l0.06,8.56,8.34-2h0A10.92,10.92,0,0,0,587.4,1044.94Z" transform="translate(-527.66 -1036.3)"/><path class="cls-1" d="M555.16,1044.94a6.35,6.35,0,0,1,8.16-6.42,10.92,10.92,0,0,1,8,10h0l-0.06,8.56-8.34-2h0A10.93,10.93,0,0,1,555.16,1044.94Z" transform="translate(-527.66 -1036.3)"/><rect class="cls-1" x="2" y="21.1" width="83.19" height="14.98"/><path class="cls-2" d="M614.86,1074.39H527.66v-19h87.19v19Zm-83.19-4h79.19v-11H531.66v11Z" transform="translate(-527.66 -1036.3)"/><rect class="cls-1" x="4.3" y="36.09" width="78.59" height="47.23"/><path class="cls-2" d="M612.55,1121.62H530v-51.23h82.59v51.23Zm-78.59-4h74.59v-43.23H534v43.23Z" transform="translate(-527.66 -1036.3)"/><rect class="cls-3" x="8" y="27.1" width="29.03" height="2.98"/><rect class="cls-3" x="10.3" y="42.09" width="66.59" height="35.23"/><path class="cls-1" d="M571.08,1086.89l31,31.16,28.31-28.14-32.1-32.28H571.08v29.26Zm6.4-22.44a3.14,3.14,0,1,1,0,4.43A3.14,3.14,0,0,1,577.49,1064.45Z" transform="translate(-527.66 -1036.3)"/><path class="cls-2" d="M599.1,1055.63H583.28a13,13,0,0,0,6.11-10.7c0-5-3.54-8.63-8.34-8.63a9.91,9.91,0,0,0-2.27.27,12.64,12.64,0,0,0-7.5,5.46,12.64,12.64,0,0,0-7.5-5.46,9.94,9.94,0,0,0-2.27-.27c-4.8,0-8.31,3.63-8.35,8.63a13,13,0,0,0,7.81,11.59v0.17l8.11,1.9v29.12l33,33.16,31.15-31Zm-19.4-15.17a5.93,5.93,0,0,1,1.36-.16c2.58,0,4.33,1.87,4.34,4.65a8.9,8.9,0,0,1-6.32,8.21l-5.75,1.36,0-6v-1.36A9,9,0,0,1,579.7,1040.46Zm-16.21,12.7a8.91,8.91,0,0,1-6.32-8.21c0-2.78,1.77-4.65,4.35-4.65a6,6,0,0,1,1.36.16,9,9,0,0,1,6.32,6.65l0.05,7.41-5.34-1.25Zm9.6,32.9v-26.43h24.35l30.1,30.27-25.47,25.32Z" transform="translate(-527.66 -1036.3)"/><path class="cls-2" d="M579.69,1061.54a5.14,5.14,0,1,0,3.64,1.51A5.11,5.11,0,0,0,579.69,1061.54Zm0.81,5.94a1.16,1.16,0,0,1-1.61,0,1.14,1.14,0,0,1,0-1.6,1.14,1.14,0,0,1,1.6,0A1.14,1.14,0,0,1,580.5,1067.48Z" transform="translate(-527.66 -1036.3)"/><path class="cls-3" d="M602.48,1092.22h0.94a6.21,6.21,0,0,0,6.22-6.21v-0.13a6.21,6.21,0,0,0-6.22-6.21h-0.94v-0.94a6.21,6.21,0,0,0-6.21-6.21h-0.13a6.22,6.22,0,0,0-6.21,6.21v13.5h12.56Z" transform="translate(-527.66 -1036.3)"/><rect class="cls-2" x="41.6" y="60.29" width="4" height="22.5"/></svg>