<svg id="Layer_4" data-name="Layer 4" xmlns="http://www.w3.org/2000/svg" viewBox="0 0 95.29 97.07"><defs><style>.cls-1{fill:#dad745;}.cls-2{fill:#aea859;}.cls-3{fill:#fff;}</style></defs><title>gift02</title><polyline class="cls-1" points="0 62.15 18.26 62.15 18.26 97.07 0 97.07"/><path class="cls-2" d="M753.35,1062.37l-9.65-2.27v-0.21a9.51,9.51,0,0,1-5.31-8.31,6.3,6.3,0,0,1,6.32-6.5,7.4,7.4,0,0,1,1.69.2,9.52,9.52,0,0,1,6.76,6.85l0.27,0Zm-6.87-5.72,2.9,0.68,0-3v-0.22a5.46,5.46,0,0,0-3.93-4.89,2.35,2.35,0,0,0-3.09,2.44,5.45,5.45,0,0,0,3.82,5Z" transform="translate(-690.58 -1045.08)"/><path class="cls-2" d="M749.35,1062.37l-0.07-10.25h0.28a9.52,9.52,0,0,1,6.75-6.83,7.43,7.43,0,0,1,1.69-.2,6.24,6.24,0,0,1,6.32,6.5,9.53,9.53,0,0,1-5.32,8.31v0.21Zm3.94-8,0,2.94,3.18-.75a5.46,5.46,0,0,0,3.83-5,2.36,2.36,0,0,0-3.1-2.44,5.46,5.46,0,0,0-3.92,4.89v0.33Z" transform="translate(-690.58 -1045.08)"/><rect class="cls-1" x="32.48" y="15" width="56.61" height="10.19"/><path class="cls-2" d="M781.67,1072.28H721.06v-14.19h60.61v14.19Zm-56.61-4h52.61v-6.19H725.06v6.19Z" transform="translate(-690.58 -1045.08)"/><polyline class="cls-1" points="75.99 67.33 34.05 67.33 34.05 25.19 87.53 25.19 87.53 61.33"/><rect class="cls-3" x="56.21" y="17" width="9.16" height="8.19"/><rect class="cls-3" x="56.46" y="25.19" width="8.65" height="42.14"/><line class="cls-3" x1="82.13" y1="32.25" x2="72.49" y2="32.25"/><rect class="cls-2" x="72.49" y="30.25" width="9.64" height="4"/><line class="cls-3" x1="82.13" y1="39.19" x2="77.43" y2="39.19"/><rect class="cls-2" x="77.43" y="37.19" width="4.71" height="4"/><polygon class="cls-2" points="36.05 51.78 32.05 51.78 32.05 23.19 89.53 23.19 89.53 50.44 85.53 50.44 85.53 27.19 36.05 27.19 36.05 51.78"/><path class="cls-3" d="M712.51,1131.64H726.3l34.55-12.83L783,1103.58c-0.06-.07-0.12-0.14-0.19-0.21l-1.59-1.59c-2.63-2.63-7-2-10.13.23l-13.17,7.58-5.18,3H730.55v-2l13.76,0c3.53-.1,6.3-4,6.2-7.56l-0.08-.89H725.88l-9.49,8.34h-3.88" transform="translate(-690.58 -1045.08)"/><path class="cls-2" d="M726.66,1133.64H712.51v-4h13.44l34-12.61,20-13.74-0.09-.09c-1.89-1.89-5.3-1.18-7.55.44l-0.17.11-18.81,10.86H728.54l0-6,15.76,0a4.05,4.05,0,0,0,2.88-1.72,6.36,6.36,0,0,0,1.23-2.72h-21.8l-9.49,8.34h-4.63v-4h3.13l9.49-8.34h27.14l0.25,2.83a10.05,10.05,0,0,1-2.16,6.35,9.48,9.48,0,0,1-1.18,1.25h3l4.71-2.74,13.09-7.54c3.68-2.6,9.17-3.42,12.63,0l1.59,1.59a3.73,3.73,0,0,1,.25.28l1.4,1.68-1.75,1.31-22.34,15.37Z" transform="translate(-690.58 -1045.08)"/><rect class="cls-2" x="8.43" y="89.44" width="4" height="4"/></svg>