<svg id="圖層_1" data-name="圖層 1" xmlns="http://www.w3.org/2000/svg" viewBox="0 0 95.83 88.18"><defs><style>.cls-1,.cls-2{fill:none;stroke:#5a6168;stroke-linecap:round;stroke-linejoin:round;}.cls-1{stroke-width:4px;}.cls-2{stroke-width:2px;}.cls-3{fill:#c2cd7d;}.cls-4{fill:#fff;}</style></defs><title>member01</title><polyline class="cls-1" points="2 14.24 2 86.18 93.83 86.18 93.83 14.24"/><rect class="cls-1" x="2" y="2" width="91.83" height="12.24"/><line class="cls-2" x1="6.59" y1="8.12" x2="9.65" y2="8.12"/><line class="cls-2" x1="12.71" y1="8.12" x2="15.78" y2="8.12"/><line class="cls-2" x1="18.84" y1="8.12" x2="21.9" y2="8.12"/><line class="cls-2" x1="24.96" y1="8.12" x2="87.71" y2="8.12"/><line class="cls-1" x1="8.12" y1="77" x2="18.84" y2="77"/><line class="cls-1" x1="28.02" y1="77" x2="87.71" y2="77"/><line class="cls-1" x1="23.43" y1="73.94" x2="23.43" y2="80.06"/><rect class="cls-3" x="8.12" y="20.37" width="79.59" height="48.98"/><polygon class="cls-4" points="41.8 35.67 43.33 35.67 60.16 44.86 43.29 54.04 41.8 54.04 41.8 35.67"/><line class="cls-2" x1="40.26" y1="64.75" x2="43.33" y2="64.75"/><line class="cls-2" x1="46.39" y1="64.75" x2="49.45" y2="64.75"/><line class="cls-2" x1="52.51" y1="64.75" x2="55.57" y2="64.75"/></svg>