<svg id="圖層_1" data-name="圖層 1" xmlns="http://www.w3.org/2000/svg" viewBox="0 0 100.44 89.38"><defs><style>.cls-1{fill:#cfdba4;}.cls-2{fill:none;stroke:#5a6168;stroke-linecap:round;stroke-linejoin:round;stroke-width:3px;}.cls-3{fill:#b9c779;}.cls-4{fill:#5a6168;}</style></defs><title>member06</title><polygon class="cls-1" points="34.52 12.48 34.52 37.59 65.91 37.59 65.91 53.29 100.44 53.29 100.44 12.48 34.52 12.48"/><polygon class="cls-1" points="92.59 64.27 92.59 53.29 81.6 53.29 92.59 64.27"/><line class="cls-2" x1="42.37" y1="20.33" x2="65.91" y2="20.33"/><line class="cls-2" x1="42.37" y1="26.61" x2="92.59" y2="26.61"/><line class="cls-2" x1="42.37" y1="32.89" x2="92.59" y2="32.89"/><line class="cls-2" x1="69.05" y1="39.16" x2="92.59" y2="39.16"/><line class="cls-2" x1="69.05" y1="45.44" x2="92.59" y2="45.44"/><polygon class="cls-3" points="34.52 37.59 0 37.59 0 78.4 65.91 78.4 65.91 53.29 34.52 53.29 34.52 37.59"/><polygon class="cls-3" points="7.85 89.38 7.85 78.4 18.83 78.4 7.85 89.38"/><line class="cls-2" x1="45.51" y1="70.55" x2="7.85" y2="70.55"/><line class="cls-2" x1="58.06" y1="64.27" x2="7.85" y2="64.27"/><line class="cls-2" x1="58.06" y1="57.99" x2="7.85" y2="57.99"/><line class="cls-2" x1="31.39" y1="51.72" x2="7.85" y2="51.72"/><line class="cls-2" x1="31.39" y1="45.44" x2="7.85" y2="45.44"/><line class="cls-2" x1="42.37" y1="45.44" x2="45.51" y2="45.44"/><line class="cls-2" x1="48.65" y1="45.44" x2="51.79" y2="45.44"/><line class="cls-2" x1="54.93" y1="45.44" x2="58.06" y2="45.44"/><path class="cls-4" d="M431.79,317v6.55H409.55V317h22.25m3-3H406.55v12.55h28.25V314h0Z" transform="translate(-370.45 -274.82)"/><polyline class="cls-2" points="12.55 34.45 12.55 1.5 76.9 1.5 76.9 9.35"/><line class="cls-2" x1="18.83" y1="7.78" x2="70.62" y2="7.78"/><line class="cls-2" x1="18.83" y1="14.05" x2="31.39" y2="14.05"/><line class="cls-2" x1="18.83" y1="20.33" x2="31.39" y2="20.33"/><line class="cls-2" x1="18.83" y1="26.61" x2="31.39" y2="26.61"/><line class="cls-2" x1="18.83" y1="32.89" x2="31.39" y2="32.89"/><line class="cls-2" x1="81.6" y1="64.27" x2="72.19" y2="64.27"/><line class="cls-2" x1="95.73" y1="70.55" x2="72.19" y2="70.55"/><line class="cls-2" x1="95.73" y1="76.83" x2="72.19" y2="76.83"/><line class="cls-2" x1="95.73" y1="83.1" x2="58.06" y2="83.1"/></svg>