<svg id="圖層_1" data-name="圖層 1" xmlns="http://www.w3.org/2000/svg" viewBox="0 0 99.39 100.81"><defs><style>.cls-1{fill:#dee4cd;}.cls-2{fill:#5a6168;}.cls-3{fill:#b9c779;}.cls-4{fill:#f8c44f;}.cls-5{fill:#fff;}</style></defs><title>member04</title><path class="cls-1" d="M384.63,330.75h4.65a11.36,11.36,0,0,0,9.12,4.58h19.77l4.37-.21a4.24,4.24,0,0,0,4.24-4.24c0-2.34-.84-4.24-3.18-4.24h1.06a4.24,4.24,0,1,0,0-8.47h2.12a4.24,4.24,0,1,0,0-8.47h-2.38a3,3,0,1,0-.3,0,4.38,4.38,0,1,0,0-8.77l-18.11,0,2.09-.09h8.76a6.47,6.47,0,0,0,6.47-6.47v-2.15c0-.09,0,0.09,0,0h-8.1s0,0,0,0H404.41l-14.27,12.27a11.41,11.41,0,0,0-2.8,5.14h-2.71v21.19Z" transform="translate(-369.13 -268.85)"/><path class="cls-2" d="M398.39,337.34a13.25,13.25,0,0,1-10.07-4.58h-3.69v-4h5.65l0.6,0.8a9.31,9.31,0,0,0,7.51,3.78h19.77l4.27-.21a2.27,2.27,0,0,0,2.33-2.24c0-2.24-.79-2.24-1.18-2.24v-4h1.06a2.24,2.24,0,1,0,0-4.47v-4h2.12a2.24,2.24,0,1,0,0-4.47l-2.38,0H424l0-2h0l0-2a2.38,2.38,0,1,0,0-4.77l-18.11,0-0.08-4,2.09-.09h8.84a4.48,4.48,0,0,0,4.47-4.47v-0.15h-5.91l-1.46.28-0.11-.28h-8.66l-13.63,11.71a9.43,9.43,0,0,0-2.24,4.17l-0.37,1.52h-4.28v-4h1.24a13.47,13.47,0,0,1,2.82-4.51l0.15-.14,14.84-12.75H415l1.45-.09,0,0.09h5l0-.13,2.2,0.13h1.39v0.1h0.14v4a8.43,8.43,0,0,1-1.35,4.58h0.15a6.38,6.38,0,0,1,5.56,9.51,6.23,6.23,0,0,1,.38,10.85,6.23,6.23,0,0,1-1.88,8.32,8.11,8.11,0,0,1,.62,3.31,6.24,6.24,0,0,1-6.24,6.24l-4.27.21H398.39Z" transform="translate(-369.13 -268.85)"/><path class="cls-3" d="M431.59,339.33l-3.29.69c-1.81.4-3.79-1.31-4.21-3.85-0.46-2.79-.94-14.69-1.1-20.73,0.17-6,.64-18,1.11-20.8,0.42-2.54,2.4-4.25,4.21-3.84l2.93,0.62a77.86,77.86,0,0,1,8.35-19,34.41,34.41,0,0,0-10.16-1.55,37.24,37.24,0,0,0-3.87.23c-8,7.21-14.48,23.62-14.42,43.5-0.45,20.64,6.15,37.76,14.41,45.17a37.6,37.6,0,0,0,3.87.22,34.18,34.18,0,0,0,10.51-1.66A70.74,70.74,0,0,1,431.59,339.33Z" transform="translate(-369.13 -268.85)"/><path class="cls-3" d="M429.42,362h0a39.56,39.56,0,0,1-4.08-.23l-0.65-.07-0.48-.43c-9.59-8.6-15.51-26.94-15.08-46.71-0.06-19,5.86-36.68,15.08-44.95l0.48-.43,0.64-.07a38.7,38.7,0,0,1,4.08-.24,36.46,36.46,0,0,1,10.76,1.64l2.46,0.77-1.36,2.19A75.72,75.72,0,0,0,433.15,292l-0.52,1.78-4.74-1-0.13,0a2.48,2.48,0,0,0-1.7,2.23c-0.42,2.5-.89,13.66-1.08,20.47,0.19,6.76.66,17.88,1.08,20.4,0.25,1.53,1.27,2.34,1.81,2.22L433,337l0.51,1.8a68.48,68.48,0,0,0,8.1,18.45l1.4,2.18-2.47.8A36.19,36.19,0,0,1,429.42,362Zm-3-4.15c1.1,0.1,2.09.15,3,.15a32.35,32.35,0,0,0,7.43-.87,73,73,0,0,1-6.66-15.44l-1.48.31a4.47,4.47,0,0,1-.95.1c-2.69,0-5.13-2.4-5.65-5.57s-1-16.58-1.13-21V315.4c0.12-4.45.59-17.86,1.13-21.07s3-5.57,5.65-5.57a4.49,4.49,0,0,1,1,.11l1.12,0.23a80.28,80.28,0,0,1,6.67-15.45,32.63,32.63,0,0,0-7.1-.79c-0.91,0-1.87.05-3,.16-9.24,8.76-13.33,27.09-13.28,41.57C412.68,335.38,419.4,351.13,426.41,357.83Z" transform="translate(-369.13 -268.85)"/><path class="cls-4" d="M441.2,357.89l-1.1.38Z" transform="translate(-369.13 -268.85)"/><path class="cls-4" d="M440.72,360.17l-1.26-3.8,1-.36,1.38,3.76Z" transform="translate(-369.13 -268.85)"/><path class="cls-1" d="M385.07,327.44l3.77,1.23a11.36,11.36,0,0,0,9.12,4.58h19.77l4.37-.21a4.24,4.24,0,0,0,4.24-4.24c0-2.34-.84-4.24-3.18-4.24h1.06a4.24,4.24,0,1,0,0-8.47h2.12a4.24,4.24,0,1,0,0-8.47h-2.38A4.46,4.46,0,0,0,428,303.2a4.39,4.39,0,0,0-4.38-4.38l-17.23-1.23Z" transform="translate(-369.13 -268.85)"/><path class="cls-2" d="M398.39,337.34a13.25,13.25,0,0,1-10.07-4.58h-3.69v-4h5.65l0.6,0.8a9.31,9.31,0,0,0,7.51,3.78h19.77l4.27-.21a2.27,2.27,0,0,0,2.33-2.24c0-2.24-.79-2.24-1.18-2.24v-4h1.06a2.24,2.24,0,1,0,0-4.47v-4h2.12a2.24,2.24,0,1,0,0-4.47h-2.38v-4a2.49,2.49,0,0,0,2.08-2.42,2.39,2.39,0,0,0-2.38-2.38H406v-4h18.11a6.38,6.38,0,0,1,5.56,9.51,6.23,6.23,0,0,1,.39,10.85,6.23,6.23,0,0,1-1.88,8.32,8.11,8.11,0,0,1,.62,3.31,6.24,6.24,0,0,1-6.24,6.24l-4.27.21H398.39Z" transform="translate(-369.13 -268.85)"/><rect class="cls-3" y="38.06" width="12.26" height="34.92"/><path class="cls-2" d="M462.38,369.64c-2.51,0-3.79-1.68-4.63-2.79s-1-1.21-1.44-1.21-0.67.19-1.44,1.21-2.12,2.79-4.63,2.79-3.78-1.68-4.62-2.79-1-1.21-1.44-1.21-0.67.19-1.44,1.21-2.12,2.79-4.63,2.79v-4c0.44,0,.67-0.19,1.44-1.21s2.12-2.79,4.63-2.79,3.78,1.68,4.63,2.79,1,1.21,1.44,1.21,0.67-.19,1.44-1.21,2.12-2.79,4.63-2.79,3.79,1.68,4.63,2.79,1,1.21,1.44,1.21,0.67-.19,1.44-1.21,2.12-2.79,4.63-2.79v4c-0.44,0-.67.19-1.44,1.21S464.89,369.64,462.38,369.64Z" transform="translate(-369.13 -268.85)"/><path class="cls-2" d="M438.12,369.66h-3.75a5,5,0,0,1-5-5v-5h4v5a1,1,0,0,0,1,1h3.75v4Z" transform="translate(-369.13 -268.85)"/><rect class="cls-5" x="4.57" y="64.67" width="4" height="5.33"/><path class="cls-2" d="M457.37,343.1l-2.83-2.83a34.2,34.2,0,0,0,0-48.3l2.83-2.83A38.2,38.2,0,0,1,457.37,343.1Z" transform="translate(-369.13 -268.85)"/><path class="cls-2" d="M449.86,335.59L447,332.76a23.53,23.53,0,0,0,0-33.28l2.83-2.83A27.53,27.53,0,0,1,449.86,335.59Z" transform="translate(-369.13 -268.85)"/><path class="cls-2" d="M441.94,327.68l-2.83-2.83a12.36,12.36,0,0,0,0-17.46l2.83-2.83A16.37,16.37,0,0,1,441.94,327.68Z" transform="translate(-369.13 -268.85)"/></svg>