<svg id="圖層_1" data-name="圖層 1" xmlns="http://www.w3.org/2000/svg" viewBox="0 0 103.28 103.28"><defs><style>.cls-1{fill:#b9c779;}.cls-2{fill:#5a6168;}</style></defs><title>member03</title><path class="cls-1" d="M419.93,355.81a35.69,35.69,0,1,1,35.69-35.69A35.73,35.73,0,0,1,419.93,355.81Z" transform="translate(-369.01 -267.62)"/><path class="cls-2" d="M406.12,329.38a2,2,0,0,1-1.6-.8l-7.33-9.75v8.55a2,2,0,1,1-4,0V312.85a2,2,0,0,1,3.6-1.2l7.33,9.75v-8.55a2,2,0,1,1,4,0v14.53A2,2,0,0,1,406.12,329.38Z" transform="translate(-369.01 -267.62)"/><path class="cls-2" d="M422.63,329.38H413a2,2,0,0,1-2-2V312.85a2,2,0,0,1,2-2h9.64a2,2,0,0,1,0,4H415v10.53h7.64A2,2,0,0,1,422.63,329.38Z" transform="translate(-369.01 -267.62)"/><path class="cls-2" d="M422.63,322.12H413a2,2,0,0,1,0-4h9.64A2,2,0,0,1,422.63,322.12Z" transform="translate(-369.01 -267.62)"/><path class="cls-2" d="M433.16,329.38h0a2,2,0,0,1-1.84-1.26l-5.8-14.53a2,2,0,0,1,3.72-1.48l4,10,2.55-6.14a2,2,0,0,1,1.86-1.23,2,2,0,0,1,1.84,1.26l2.4,6,3.94-9.88a2,2,0,0,1,3.72,1.48l-5.8,14.53a2,2,0,0,1-3.72,0L437.56,322,435,328.15A2,2,0,0,1,433.16,329.38Z" transform="translate(-369.01 -267.62)"/><rect class="cls-2" x="50.24" width="4" height="8.96"/><rect class="cls-2" x="395.59" y="273.64" width="4" height="8.96" transform="translate(-454.8 -31.59) rotate(-30)"/><rect class="cls-2" x="378.11" y="290.68" width="4" height="8.96" transform="translate(-434.56 209.17) rotate(-60)"/><rect class="cls-2" y="49.04" width="8.96" height="4"/><rect class="cls-2" x="375.03" y="340.32" width="8.96" height="4" transform="translate(-489.33 -31.99) rotate(-30)"/><rect class="cls-2" x="392.07" y="357.8" width="8.96" height="4" transform="translate(-482.34 255.69) rotate(-60)"/><rect class="cls-2" x="49.04" y="94.32" width="4" height="8.96"/><rect class="cls-2" x="441.71" y="355.92" width="4" height="8.96" transform="translate(-489.77 2.54) rotate(-30)"/><rect class="cls-2" x="459.19" y="338.88" width="4" height="8.96" transform="translate(-435.76 303.5) rotate(-60)"/><rect class="cls-2" x="94.32" y="50.24" width="8.96" height="4"/><rect class="cls-2" x="457.31" y="294.2" width="8.96" height="4" transform="translate(-455.25 3.09) rotate(-30.01)"/><rect class="cls-2" x="440.27" y="276.72" width="8.96" height="4" transform="translate(-387.94 257.05) rotate(-60.02)"/></svg>