<svg id="圖層_1" data-name="圖層 1" xmlns="http://www.w3.org/2000/svg" viewBox="0 0 89.77 89.15"><defs><style>.cls-1{fill:#b9c779;}.cls-2,.cls-3{fill:none;stroke:#5a6168;stroke-linecap:round;stroke-linejoin:round;}.cls-2{stroke-width:4px;}.cls-3{stroke-width:2px;}.cls-4{fill:#cfdba4;}.cls-5{fill:#abb068;}</style></defs><title>member05</title><rect class="cls-1" x="76.7" y="33.82" width="6.92" height="38.73"/><polyline class="cls-2" points="80.85 18.6 87.77 18.6 87.77 76.7 80.85 76.7"/><line class="cls-2" x1="87.77" y1="29.67" x2="80.85" y2="29.67"/><line class="cls-3" x1="83.62" y1="24.13" x2="80.85" y2="24.13"/><rect class="cls-1" x="6.15" y="33.82" width="6.92" height="38.73"/><polyline class="cls-2" points="8.92 18.6 2 18.6 2 76.7 8.92 76.7"/><line class="cls-2" x1="8.92" y1="29.67" x2="2" y2="29.67"/><line class="cls-3" x1="8.92" y1="24.13" x2="6.15" y2="24.13"/><path class="cls-4" d="M389.18,287.75v69.17h63.64V287.75H389.18Zm58.1,63.64H394.72v-58.1h52.57v58.1Z" transform="translate(-376.12 -274.68)"/><polyline class="cls-2" points="33.82 82.24 13.07 82.24 13.07 13.07 76.7 13.07 76.7 82.24 55.95 82.24"/><rect class="cls-2" x="13.07" y="2" width="63.64" height="11.07"/><line class="cls-3" x1="17.22" y1="7.53" x2="19.98" y2="7.53"/><line class="cls-3" x1="22.75" y1="7.53" x2="25.52" y2="7.53"/><line class="cls-3" x1="28.28" y1="7.53" x2="31.05" y2="7.53"/><line class="cls-3" x1="33.82" y1="7.53" x2="72.55" y2="7.53"/><polygon class="cls-5" points="44.88 68.4 44.88 83.62 51.8 89.15 53.19 87.77 53.19 64.25 44.88 68.4"/><polygon class="cls-1" points="44.88 68.4 44.88 83.62 37.97 89.15 36.58 87.77 36.58 64.25 44.88 68.4"/><circle class="cls-1" cx="44.88" cy="47.65" r="12.45"/><path class="cls-2" d="M436.92,328.93a6.91,6.91,0,0,1-9.32,9.32,6.92,6.92,0,0,1-13.2,0,6.91,6.91,0,0,1-9.32-9.32,6.92,6.92,0,0,1,0-13.2,6.91,6.91,0,0,1,9.32-9.32,6.92,6.92,0,0,1,13.2,0,6.91,6.91,0,0,1,9.32,9.32A6.92,6.92,0,0,1,436.92,328.93Z" transform="translate(-376.12 -274.68)"/><line class="cls-2" x1="44.88" y1="42.12" x2="44.88" y2="53.19"/><path class="cls-2" d="M421,316.8a4.15,4.15,0,0,1-4.15,4.15" transform="translate(-376.12 -274.68)"/></svg>